<svg xmlns="http://www.w3.org/2000/svg" width="500" height="500" version="1.0" viewBox="0 0 375 375"><defs><clipPath id="d"><path d="M.188 1.293h166.5v166.5H.188Zm0 0"/></clipPath><clipPath id="c"><path d="M0 0h167v168H0z"/></clipPath><filter id="a" width="100%" height="100%" x="0%" y="0%"><feColorMatrix color-interpolation-filters="sRGB" values="0 0 0 0 1 0 0 0 0 1 0 0 0 0 1 0 0 0 1 0"/></filter><mask id="b"><g filter="url(#a)"><path fill-opacity=".63" d="M-37.5-37.5h450v450h-450z"/></g></mask></defs><g mask="url(#b)"><g clip-path="url(#c)" transform="translate(104 103)"><g clip-path="url(#d)"><path d="M83.32 1.293C37.984 1.289.293 38.676.277 83.656c-.015 46.961 36.739 84.133 83.192 84.137 45.812 0 83.058-37.27 83.11-83.164.054-45.86-37.392-83.336-83.259-83.336Zm67.004 74.457c-.031-.145-.047-.297-.074-.441-.234-1.153-1.246-2.832-.555-3.32 1-.712 2.368.593 3.582 1.007.84.285 1.582.84 2.41 1.18 1.192.488 1.946 1.16 1.372 2.465-.23 5.789-.825 11.437-2.094 16.996-.117.508-.371 1.004-.387 1.511-.035.926-.734 1.204-1.344 1.188-.918-.023-.566-.918-.566-1.414-.027-6.484-.988-12.852-2.344-19.172Zm-105.57 66.84c.09-.2.184-.395.277-.594 3.649.512 7.301 1.027 11.543 1.621-2.797.895-5.011 1.953-7.324 2.25-2.293.293-2.984-2.164-4.496-3.277Zm3.105 7.906c1.313 2.074 2.743 4.074 4.426 6.559-3.476-1.352-6.234-2.828-8.996-4.301-1.066-.57-.937-1.191-.246-1.93.305-.328.613-.66.953-.953 2.227-1.906 2.297-1.855 3.863.625Zm-2.507-9.5c-.954-.184-1.38-.687-1.684-1.539-2.426-6.816-3.922-13.844-4.711-21.023-.254-2.317-.316-4.649-.555-6.965-.129-1.258.16-1.903 1.559-2.102 3.258-.472 6.516-1.004 9.723-1.734 1.668-.38 2.078.437 2.355 1.691 1.098 4.95 2.574 9.797 4.215 14.586 1.867 5.45 3.992 10.793 6.601 15.938 1.274 2.507 1.239 2.527-1.476 3.035-.367.07-.738.133-1.024.183-5.07-.629-10.066-1.136-15.003-2.07ZM14.105 74.242c.149 3.985.301 7.965 1.043 11.895.61 3.238 1.262 6.472 1.864 9.715.09.484.648 1.02.152 1.457-.445.394-.953.004-1.43-.211a107.265 107.265 0 0 0-4.52-1.957c-1.32-.524-1.878-1.414-1.534-2.817.383-5.886 1.004-11.75 2.297-17.52.062-.288.257-.546.324-.835.164-.68.57-1.121 1.261-1.016.739.11.524.817.543 1.29Zm.934-6.89c-.164-4.415 2.274-8.372 4.082-12.528.336-.765.805-.883 1.602-.492 6.632 3.246 13.691 5.152 20.886 6.648.547.118 1.723-.203 1.551 1.09-.129.973-.222 1.805-1.574 2.047-6.52 1.176-13.05 2.348-19.379 4.39-1.7.548-3.477.95-5.074 1.72-2.031.976-2.278.09-2.098-1.606.031-.297.004-.601.004-1.27ZM121.918 27.25c-3.695-.54-7.277-1.063-10.86-1.582.004-.125.012-.246.02-.367 1.977-.637 3.945-1.293 5.93-1.903 1.613-.496 3.64 1.059 4.91 3.852Zm-3.11-8.746c-1.261-1.988-2.632-3.91-4.222-6.262 3.527 1.25 6.39 2.809 9.227 4.418.695.395.628.942.113 1.48-.258.274-.492.567-.758.829-2.36 2.289-2.645 2.23-4.36-.465Zm2.45 9.656c1.07.184 1.512.656 1.851 1.602 2.54 7.015 4.016 14.261 4.793 21.66.227 2.164.29 4.344.512 6.508.117 1.11-.277 1.691-1.351 1.883-3.536.624-7.079 1.218-10.602 1.914-1.453.285-1.434-.86-1.61-1.594-1.19-5.078-2.675-10.07-4.37-15-1.868-5.434-3.997-10.766-6.606-15.895-1.3-2.558-1.219-2.664 1.559-2.843.671-.043 1.347-.063 1.984-.09 4.668.43 9.258 1.078 13.84 1.855Zm19.015 27.969c-2.93.91-5.87 1.773-8.8 2.664-1.793.547-2.094-.152-2.164-1.605-.332-6.688-1.282-13.293-2.91-19.79-.669-2.668-1.508-5.289-2.274-7.933 3.133 2.289 5.418 5.242 7.668 8.223 3.715 4.93 6.824 10.234 9.672 15.707.851 1.64.504 2.21-1.192 2.734Zm2.868.937c1.672 3.977 3.336 7.95 4.52 12.567-5.915-1.828-11.403-3.406-17.067-4.27-.492-.074-.781-.324-.957-.8-.918-2.512.066-4.438 2.687-5.079a79.324 79.324 0 0 0 8.98-2.789c.673-.25 1.383-.715 1.837.371Zm-14.606 14.567c-.578 10.52-2.168 20.863-4.715 31.074-.41 1.645-1.601 1.957-2.828 1.875-1.34-.09-.836-1.41-.836-2.18.024-12.242-1.426-24.312-4.023-36.261-.274-1.258-.195-2.141 1.597-1.82 3.223.577 6.485.964 9.73 1.413 1.005.137 1.114.778 1.087 1.621-.047 1.426-.012 2.852-.012 4.278Zm-7.094 35.847c-.5-.164-1.379.13-1.23-.843.156-1.059 1.055-1.114 1.89-1.153.508-.023.887.137.739.813-.274.586-.25 1.558-1.399 1.183Zm.457 2.012c-.445 1.242-.875 2.492-1.308 3.738-.153-.007-.3-.02-.453-.027v-4.016c0-.699.316-.91.992-.714.535.156 1.043.261.77 1.02Zm-31.578-4.87c-1.593.046-1.351-1.095-1.289-2.024.383-6.004.465-12.016.875-18.028 0-6.011.035-12.023-.027-18.035-.012-1.332.344-1.746 1.742-1.84 5.684-.386 11.399-.351 17.047-1.207.293-.047.602-.015.898-.023 4.645-.067 4.961.11 5.91 4.597 1.504 7.094 2.372 14.278 3.051 21.5.418 4.418.106 8.868.79 13.254.269 1.727-.567 2.102-2.094 2.348-9.012 1.457-17.93-.8-26.903-.543Zm11.887 1.425c-3.953.57-7.887 1.078-11.863.883-.54-.028-1.324.215-1.297-.762.023-.773.66-.711 1.16-.688 4 .176 8 .375 12 .567Zm-13.977-3.285c.024 1.39-.511 1.832-1.875 1.761-2.171-.113-4.359-.16-6.527-.043-1.562.086-2.094-.359-2.07-1.984.086-6.016.914-30.078.855-36.098-.015-1.296.41-1.699 1.676-1.644 2.102.094 4.215.156 6.309.004 1.859-.137 2.484.422 2.398 2.355-.43 9.617-.105 19.258-.668 28.88-.133 2.25-.144 4.51-.098 6.769Zm-13.308 1.886c-6.598.211-13.192.57-19.781.957-2.309.133-3.16-.828-3.633-3.097-2.356-11.25-3.383-22.64-3.961-34.09-.215-4.273-.14-4 4.058-4.586 4.31-.602 8.524-.086 12.778.137 3.558.187 7.867.547 11.555.722a1.096 1.096 0 0 1 1.042 1.098v36.566c.02 1.582-.296 2.235-2.058 2.293Zm.734 2.278c-3.77-.16-7.539-.352-11.308-.535v-.399c3.78-.172 7.566-.355 11.347-.512.477-.02 1.133-.152 1.192.63.074.956-.676.84-1.23.816Zm-37.531-.871c-.129-.746-.313-1.75 1.117-1.524 2.488.39 4.992.719 7.488 1.078 1.094.157 2.188.325 3.282.485l.07.41c-3.691.707-7.363 1.605-11.09 2.027-1.449.164-.719-1.59-.867-2.476Zm10.602-1.188c-2.973-.68-6.02-1.07-9.055-1.406-1.484-.164-1.637-.867-1.484-2.078.167-1.34.21-2.7.308-4.047.332-10.465 1.965-20.73 4.484-30.883.399-1.601 1.36-1.789 2.602-1.71 1.422.089.93 1.335 1.008 2.077.406 3.883.176 7.79.504 11.696.687 8.21 1.785 16.34 3.488 24.386.39 1.848.281 2.45-1.855 1.965Zm-2.88-44.047c-.859-.101-1.175-.535-.874-1.375l1.312-3.675c.149.039.293.082.442.12 0 1.258.007 2.516-.004 3.774-.004.586.078 1.27-.875 1.156Zm-.566.832c.649.067 1.2.184 1.172 1-.031 1.024-.777.93-1.45.93-.507 0-1.163.125-1.019-.73.118-.696.387-1.293 1.297-1.2Zm31.188 1.985c-4.031.09-8.035-.317-12.04-.852 4.044-.031 8.048-.512 12.071-.66.543-.02 1.316-.188 1.3.762-.019.933-.777.734-1.331.75Zm10.558 43.297c-1.422.007-2.843.004-4.265.004v-.012c-1.344 0-2.692.011-4.04-.004-.468-.008-.91-.113-.906-.727.004-.61.442-.73.907-.73 2.77-.012 5.539-.008 8.304 0 .47.004.926.101.907.715-.02.562-.407.754-.907.754Zm.79 2.78c-.407 7.122-.743 14.247-1.153 21.372-.168 2.922-.508 5.832-.66 8.758-.055 1.039-.332 1.515-1.426 1.426-.82-.067-1.652-.012-2.476-.012-3.793.004-3.836.004-3.887-3.903-.05-4.359-.414-22.542-.48-27.277-.02-1.387.265-2.05 1.835-1.96 2.243.132 4.504.097 6.75.023 1.207-.04 1.563.414 1.496 1.574Zm-8.012-47.589c1.422-.008 2.843-.004 4.265-.004v-.008c1.196 0 2.395-.02 3.59.008.559.016 1.297-.152 1.274.8-.016.716-.559.794-1.102.833-2.691.2-5.383.148-8.074-.05-.45-.036-.922-.095-.961-.7-.043-.723.43-.875 1.008-.879Zm10.172.668c.074-.79.718-.684 1.195-.617 3.402.484 6.836.347 10.234.629-3.39 1.023-6.832.687-10.238.86-.59.03-1.281.054-1.191-.872Zm38.554 1.668c-.12.766-.832.215-1.3.144-3.743-.554-7.485-1.101-11.774-1.734 4.254-.777 7.973-1.465 11.695-2.125.473-.082 1.215-.348 1.32.379.157 1.098.235 2.254.06 3.336Zm-14.66-4.121c.317 1.23-.125 1.875-1.43 1.867-.898-.008-1.8 0-2.703 0-6.136-.277-12.254-1.055-18.414-.871-1.074.031-1.441-.363-1.426-1.434.168-10.152-.28-20.3-.511-30.449-.032-1.305.433-1.633 1.672-1.695 3.062-.156 6.129-.418 9.18-.778 1.019-.12 1.488.196 1.91 1.028 5.242 10.293 8.87 21.168 11.722 32.332ZM90.492 26.969c-.656.097-1.207-.043-1.238-.887-.035-.887.566-.945 1.2-.914 3.187.16 6.37.336 9.558.504-3.102 1.148-6.356.832-9.52 1.297Zm8.543-2.246c-3.07-.13-6.14-.301-9.21-.457-.548-.028-.766-.348-.802-.871-.308-4.618-.625-9.239-.968-14.348 5.054 4.39 8.55 9.297 11.574 14.59.48.84.21 1.117-.594 1.086Zm-11.762 2.273h-2.91v.016c-.746 0-1.492.023-2.238-.008-.492-.02-1.137.066-1.043-.762.059-.52.137-1.12.836-1.129 1.863-.015 3.727 0 5.59.032.574.007.68.44.71.933.04.7-.335.918-.945.918Zm-4.543.973c.223.035.454.023.676.023 5.063.043 5.11.043 5.207 5.281.078 3.985.352 21.438.438 26.172.031 1.606-.649 1.871-2.031 1.79a72.692 72.692 0 0 0-6.524-.106c-1.23.035-1.566-.414-1.508-1.57.25-4.957.371-9.922.672-14.871.309-5.028.832-10.036 1.14-15.063.087-1.43.63-1.863 1.93-1.656Zm-4.187-.985c-4.004-.265-8-.574-12-.867.023-.172.05-.344.074-.515 3.95-.172 7.903-.368 11.856-.5.632-.02 1.601-.391 1.629.886.03 1.227-.86 1.043-1.559.996Zm-.223.848c1.032-.004 1.633.137 1.54 1.504-.692 10.047-1.305 20.098-1.903 30.148-.066 1.121-.23 1.844-1.61 1.817-6.456-.117-12.89.36-18.245.89-3.868.13-6.567-.644-9.329-.875-1.601-.136-1-1.257-1.07-2.175-.797-10.563 5.024-18.828 9.387-27.641 1.996-4.035 4.336-6.016 9.148-4.71 3.883 1.05 8.024 1.054 12.082 1.042ZM49.11 44.957c-.512-2.555.343-5.008.75-7.45.503-3 1.46-5.917 2.117-8.894.27-1.222.789-1.793 2.09-1.777 1.554.02 3.078-.684 5.027-.234-3.836 6.039-7.024 12.101-9.985 18.355Zm3.82-22.535c-.328.73-.973.601-1.54.375-1.367-.55-2.843-.867-4.148-1.902 2.633-2.063 5.297-3.915 8.82-5.668-1.214 2.796-2.156 5.003-3.132 7.195Zm-5.668-.317c1.074.52 2.207.915 3.3 1.399.626.277 1.665.183 1.524 1.289-.133 1.023-.875 1.46-1.86 1.621-2.949.477-5.89 1.016-8.843 1.473-.79.12-1.516.746-2.762.148 2.297-1.996 4.418-3.855 6.559-5.695.625-.535 1.297-.613 2.082-.235Zm3.242 5.243c.195-.02.41.12.691.207-2.125 7.28-3.258 14.691-4.136 22.183-.395 3.352-2.016 6.555-3.079 9.825-.238.73-.707.78-1.41.636-7.203-1.472-14.297-3.258-20.972-6.453-1.22-.582-1.442-1.031-.762-2.281 4.14-7.617 9.266-14.5 15.168-20.817.351-.37.793-.8 1.258-.906 4.379-.988 8.77-1.922 13.242-2.394ZM21.168 48.664c-.445.777-.852 1.578-1.328 2.332-.305.488-.293 1.457-1.34 1.004-.871-.375-1-1.016-.754-1.836.52-1.715 1.004-3.445 1.559-5.148.39-1.211 1-2.356 1.3-3.582 1.75-7.114 6.735-10.082 13.864-10.692-5.258 5.54-9.614 11.485-13.301 17.922Zm-3.313 4.121c.446.192.954.371.536 1.102-.598 1.047-.899 2.265-1.809 3.265-.52-1.406.293-2.543.36-3.757.027-.477.363-.844.913-.61Zm-2.832 21.121c-.003-.906-.109-1.773 1.016-2.207 8.09-3.117 16.512-4.918 25.055-6.414 1.043-.125 1.242.36.972 1.332-2.152 7.824-3.386 15.813-4.18 23.871-.35 3.582-.46 7.196-.585 10.797-.043 1.223-.27 1.79-1.672 1.488-5.172-1.109-10.3-2.343-15.34-3.949-1.094-.347-1.785-.86-2.074-2.035-1.86-7.52-3.13-15.113-3.192-22.883Zm20.895 29.89c1.762.282 1.379 1.68 1.316 2.794-.058 1.043.61 2.3-1.316 2.762-3.55.855-7.027 2.043-10.504 3.18-.836.273-1.406.406-1.812-.532-1.711-3.96-3.305-7.957-4.493-12.414 5.711 1.723 11.176 3.316 16.809 4.21Zm-7.2 8.513c2.137-.672 4.317-1.2 6.454-1.88 1.484-.468 2.16-.398 2.277 1.532.48 7.937 1.63 15.781 3.91 23.422.461 1.554.965 3.097 1.453 4.644-6.886-6.527-12.164-14.03-16.414-22.257-2.085-4.04-2.043-4.086 2.32-5.461Zm24.231-3.29c-.32-1.238-.18-1.714 1.27-2.003 3.043-.606 6.008.101 8.949.37 4.035.368 8.086.134 12.113.641 1.418.18 1.707.614 1.692 1.899-.063 4.957.386 24.636.457 29.515.015 1.282-.188 1.86-1.657 1.922-2.84.117-5.675.45-8.5.797-1.464.18-2.273-.273-2.964-1.644-5.036-10.051-8.559-20.641-11.36-31.496Zm23.453 33.293c.63-.039 1.016.133 1.059.817.05.762-.453.86-1.02.836-3.277-.149-6.554-.309-9.832-.465 3.239-.938 6.52-.988 9.793-1.188Zm.09 2.555c.785 0 1.258.348 1.313 1.192.3 4.41.613 8.82.906 13.23.008.102-.14.219-.387.574-4.87-4.332-8.531-9.484-11.492-15 3.273 0 6.465 0 9.66.004Zm2.988-2.707c1.782-.035 3.563-.047 5.34-.058.52 0 .848.246.82.808-.027.543-.113 1.078-.816 1.094-.89.023-1.781.008-2.672.008v-.024c-.816 0-1.632.008-2.449 0-.539-.004-1.058-.039-1.082-.781-.02-.613.211-1.031.86-1.047Zm6.805 4.195c.082-.976.485-1.285 1.383-1.324 5.676-.222 11.352-.472 17.64-.742-5.695 7.707-11.753 14.106-19.87 18.277-.372.192-.81.61-1.18.184-.176-.203-.086-.707-.02-1.05.992-5.075 1.63-10.196 2.047-15.345Zm.45-3.23c.042-1 .734-.996 1.43-.945 2.905.222 5.812.46 8.718.687.887.07 1.77.121 2.656.184-3.836 1.047-7.719.914-11.594.945-.59.004-1.25.066-1.21-.871Zm17.796-.234c-5.164-.973-10.406-1.422-15.648-1.563-1.942-.055-2.035-.656-1.903-2.351.63-8.09 1.07-16.192 1.575-24.29.05-.828.02-1.656.058-2.48.184-3.93.2-3.805 3.996-4.144 5.672-.508 11.371-.5 17.047-1.086 2.754-.286 5.63.585 8.446.96.87.118.957.743.918 1.508-.067 1.274-.02 2.555-.02 3.832.402 3.496-.684 6.645-2.059 9.79-2.828 6.472-5.984 12.757-9.855 18.675-.652.996-1.266 1.39-2.555 1.149Zm13.211-18.79c.469 2.575-.394 5.032-.785 7.493-.457 2.855-1.445 5.625-2 8.469-.312 1.597-1.059 2.308-2.633 2.394-1.488.082-2.972.29-4.87.484 4.023-6.214 7.265-12.437 10.288-18.84Zm-1.883 22.45c1.184.57 3.157.637 3.371 1.746.184.953-1.726 1.601-2.753 2.305-1.754 1.203-3.602 2.27-5.41 3.39-.087-.12-.172-.246-.258-.367.91-2.043 1.91-4.055 2.699-6.145.504-1.335 1.187-1.492 2.351-.93Zm.325-.863c-.586-.278-1.637-.153-1.45-1.32.172-1.055.82-1.368 1.852-1.524 3.828-.594 7.637-1.317 11.453-1.989l.254.325c-2.324 1.98-4.656 3.949-6.969 5.945-.566.488-1.054.3-1.633.04-1.156-.524-2.363-.93-3.507-1.477Zm-.625-3.77c2.191-7.73 3.351-15.29 4.254-22.93.367-3.125 1.98-6.093 2.949-9.16.347-1.086 1.113-.879 1.8-.742 7.133 1.422 14.13 3.273 20.743 6.387 1.191.558 1.28 1.156.68 2.257a98.28 98.28 0 0 1-15.173 20.801c-.41.426-.8.824-1.453.969-4.441.996-8.89 1.938-13.8 2.418Zm27.359-17.047c1.379-2.223 2.676-4.5 4.02-6.75.32-.539.48-1.371 1.449-.879.734.375.886.988.691 1.707-1.48 5.524-3.492 10.832-6.262 15.844-.27.492-.671.816-1.168 1-2.859 1.059-5.722 2.102-8.855 2.555 3.61-4.368 7.164-8.7 10.125-13.477Zm6.023-8.433c-.5-.215-.89-.485-.523-1.172.578-1.082 1.078-2.204 1.86-3.82.347 1.933-.29 3.105-.43 4.34-.043.39-.293.913-.907.651Zm-1.316-1.926c-.395.816-.934.664-1.637.316-6.633-3.266-13.703-5.152-20.914-6.586-.644-.129-1.64-.058-1.406-1.258.152-.789.09-1.77 1.176-1.925 9.148-1.329 18.09-3.496 26.789-6.711.914 6.054-1.555 11.109-4.008 16.164Zm1.29-16.274c-7.204 2.485-14.606 4.117-22.071 5.508-2.39.445-2.43.324-1.836-2.035 2.754-10.957 4.133-22.106 4.492-33.387.05-1.554.18-2.164 2.059-1.773 5.109 1.058 10.148 2.32 15.117 3.906 1.074.344 1.625.91 1.89 1.934 1.836 7.066 2.864 14.254 3.278 22.007.703 2.125-.727 3.082-2.93 3.84Zm9.108-22.379c4.461 1.641 7.41 5.606 7.332 9.547-.042 2.059-1.195 3.477-2.496 4.848-1.964 2.074-4.324 3.578-7.136 4.95 1.297-6.56 2.511-12.84 2.3-19.345Zm-3.257-28.703c5.777 10 9.226 20.559 10.004 32.008-1.961-1.676-3.856-3.242-5.993-4.473-.851-.492-.777-1.187-.761-1.925.129-7.864-1.344-15.47-3.625-22.946-.34-1.113-.32-1.117.375-2.664Zm2.015 20.746c.082 1.348.184 2.696.258 3.762.352 1.785-.207 2.055-1.45 1.309-.066-.035-.128-.086-.198-.106-4.922-1.316-7.95-4.258-8.782-9.496-.316-2.02-1.382-3.95-2.289-5.832-.617-1.277-.55-1.93.871-2.52 2.489-1.039 4.793-2.456 6.793-4.289.989-.902 1.32-.828 1.723.508 1.625 5.453 2.719 10.989 3.074 16.664Zm-3.097-24.414c-1.012-1.472-2.024-2.941-3.036-4.41 1.868.883 2.864 2.367 3.036 4.41Zm-7.934-12.453 3.902 4.899c-2.547-.649-2.797-3.11-4.543-4.391.215-.168.426-.34.641-.508Zm2.512 7.102c1.465 2.941 2.879 5.898 4.074 8.968.426 1.098.305 1.797-.516 2.567-2.222 2.078-4.847 3.5-7.55 4.812-1.329.649-1.512-.449-1.875-1.195-3.079-6.285-6.739-12.207-11.04-17.723-1.609-2.058-3.312-4.039-5.328-6.484 6.883 1.473 13.047 3.18 18.907 5.902 1.496.696 2.582 1.657 3.328 3.153Zm-5.305-6.637c.555.574 1.066 1.191 1.598 1.785-5.586-1.926-11.114-3.73-16.817-4.75-3.422-.61-5.203-2.496-6.441-5.441-.41-.969-.34-1.5.582-1.992.586-.317 1.32-.653 1.61-1.188 1.71-3.125 3.472-1.46 5.34-.21 5.128 3.433 9.847 7.35 14.128 11.796Zm-17.289-17.047c3.879 1.461 12.977 9.324 15.289 13.281-.742-.011-1.047-.55-1.434-.894-3.855-3.45-7.933-6.613-12.37-9.274-1.29-.77-1.794-1.683-1.485-3.113Zm-1.063 1.145c-4.757-2.883-10.605-3.7-14.64-7.907 5.418 1.653 11.363 2.317 14.64 7.907Zm-15.832-6.942c-3.707-.847-7.312-1.902-10.96-2.808 3.804.386 7.84-.196 10.96 2.808Zm2.653 2.371c2.933 1.336 4.433 4.602 6.176 7.313.613.953 2.062 2.394 1.363 2.98-1.188.989-2.133-.8-3.047-1.515-6.977-5.45-14.523-9.836-22.926-12.688-.55-.187-1.082-.426-1.62-.64 6.976.437 13.769 1.695 20.054 4.55Zm5.992 11.246c-5.129 1.586-9.703 3.579-14.871 2.598-.86-.16-1.352-.566-1.723-1.234-3.426-6.125-7.457-11.758-12.953-16.23-.129-.106-.105-.403-.215-.907 11.153 2.863 20.719 8.27 29.762 15.773ZM84.215 6.328c1.168.188 2.523.945 2.672 2.61.273 3.124.605 6.246.898 9.37.078.817.07 1.645.16 2.465.387 3.536.395 3.532-3.03 3.48-3.712-.058-3.712-.058-3.231-3.753.52-4 .98-8.008 1.629-11.984.12-.746-.094-2.344.902-2.188Zm-3.68 16.488c-.09 1.387-.933 1.493-2 1.47-5.555-.126-11.078.374-17.086.776 5.73-8.07 12.242-14.71 21.375-19.183-1.09 5.95-1.937 11.414-2.289 16.937ZM78.81 6.668c-2.325 1.762-4.504 3.305-6.567 4.996-4.09 3.36-7.613 7.277-10.64 11.606-1.07 1.53-2.157 1.718-3.786 1.304-4.308-1.097-4.218-1.015-2.558-5.152 1.617-4.035 4.203-6.758 8.41-8.27 4.621-1.668 9.238-3.3 13.988-4.539.27-.07.586.024 1.153.055Zm-13.043.316c2.582-.254 5.113-1.023 7.75-.699-3.938 1.621-8.063 2.59-11.711 4.77-.254.152-.82.12-1.028-.067-.336-.304.028-.675.262-.941 1.281-1.465 2.559-2.852 4.727-3.063Zm-4.29-.214c-5.777 1.648-11.413 3.695-16.94 6.015C49.57 8.98 55.41 7.54 61.475 6.77Zm-17.402 7.605c5.239-2.55 10.617-4.684 16.414-5.89-1.351 2.28-2.593 4.48-5.125 5.726-2.87 1.41-5.52 3.258-8.086 5.195-1.457 1.094-3.07.422-4.422-1.738-1.039-1.656-.351-2.527 1.22-3.293Zm-2.918 1.727c.504 1.699 1.453 3.109 2.907 4.12.707.493.87.833.105 1.493-2.664 2.293-5.246 4.683-7.898 6.988-1.06.918-2.512.875-3.774 1.293-2.238.742-4.508 1.383-7.297 2.227 4.34-6.836 8.625-12.891 15.957-16.121Zm-12.347 8.75c-3.047 3.64-4.086 9.242-10.368 10.234 3.239-4.027 6.551-7.383 10.368-10.234ZM15.78 38.703c1.848-1.738 4.047-3.02 6.969-4.11-2.547 5.067-4.426 9.79-5.738 14.716-.375 1.406-.86 1.054-1.645.39-3.715-3.144-3.629-7.183.414-10.996Zm-4.336 6.55c1.004 2.68 2.485 4.575 4.43 6.11.656.516.266 1.293.156 1.914-1.047 6.02-2.066 12.051-4.168 17.825-.297.816-.574 1.562-1.515 2.043-3.192 1.625-6.211 3.53-8.868 6.918.73-12.622 3.844-23.872 9.965-34.81ZM1.59 83.2c.906-4.984 5.348-6.746 9.37-9.281-.605 3.578-1.241 6.7-1.632 9.848-.379 3.101-.512 6.234-.785 9.8C4.469 90.941.637 88.434 1.59 83.2Zm10.598 38.2c-.735.331-.817-.5-1.028-.887-5.25-9.582-8.504-19.774-9.457-31.328 1.984 2.308 3.809 3.84 5.887 5.039.844.488 1.039 1.21 1.055 2.074.14 8.027 1.437 15.867 3.835 23.527.188.59.391 1.266-.293 1.574Zm.964-3.337c-1.609-5.367-2.797-10.804-3.039-16.41-.082-1.941-.816-3.84-.34-5.953 2.5 1.051 4.817 2.047 7.157 2.989.785.316 1.16.878 1.379 1.636a86.812 86.812 0 0 0 4.257 11.574c.532 1.168.34 1.72-.804 2.211-2.555 1.102-4.946 2.5-7.024 4.38-.785.706-1.172.956-1.586-.427Zm5.817 13.711c-1.84-3.152-3.207-6.527-4.567-9.906-.375-.93-.187-1.562.465-2.207 2.223-2.195 4.926-3.637 7.715-4.95 1.383-.651 1.492.571 1.844 1.278 3.304 6.676 7.23 12.953 11.89 18.766 1.305 1.621 2.657 3.203 4.438 5.344-7.41-1.567-13.996-3.403-20.176-6.524-.812-.41-1.203-1.101-1.61-1.8Zm3.515 4.102c4.461 1.488 8.875 3.05 13.446 4.09 1.02.234 2.023.61 3.05.695 3.563.293 5.368 2.524 6.57 5.586.305.774.384 1.473-.394 1.656-2.004.473-2.64 4.172-4.812 2.957-6.82-3.832-12.719-8.93-17.86-14.984Zm18.602 19.09c-6.203-3.668-11.285-8.363-15.867-13.918.797-.152 1.054.387 1.375.687 4.027 3.711 8.336 7.055 13.023 9.883 1.266.766 1.73 1.707 1.469 3.348Zm.977-2.024c4.843 3.59 10.66 4.305 14.91 8.305-4.52.48-13.957-4.5-14.91-8.305Zm15.3 7.274c3.977 1.039 7.465 1.95 10.95 2.863-3.676-.16-7.528.363-10.95-2.863Zm1.352-.664c-5.903-1.567-8-6.602-10.903-10.98-.167-.258-.285-.555-.058-.821.293-.34.664-.293 1.012-.082.195.113.375.25.547.394 7.644 6.434 16.18 11.297 25.613 14.704-5.567-.309-10.867-1.797-16.211-3.215Zm13.87 1.113c-7.96-2.906-15.124-7.203-21.726-12.5-1.316-1.055-1.101-1.523.336-1.918 4.168-1.144 8.258-2.738 12.73-1.969.68.118 1.333.086 1.72.793 3.48 6.375 7.84 12.051 13.285 16.875.082.07.05.274.09.551-2.301-.164-4.356-1.074-6.434-1.832Zm9.935 2.14c-1.032-.12-2.278-.757-2.48-1.933-.837-4.883-1.024-9.84-1.395-14.773-.07-.922.46-1.145 1.261-1.11.746.032 1.496.008 2.246.008 3.27.184 3.27.184 2.965 3.602-.367 4.18-.867 8.34-1.75 12.445-.137.644.2 1.883-.847 1.762Zm1.652 4.145c-.402.008-1.156.344-1.09-.594.05-.77.516-1.011 1.227-.878.793.148 1.554.363 2.425 1.043-.953.601-1.78.417-2.562.43Zm21.715-21.879c.668-.925 1.386-1.273 2.414-.574.176.121.426.145.64.195 4.332 1.028 4.246.993 2.59 5.028-1.566 3.832-3.867 6.664-7.949 8.144-4.957 1.801-9.82 3.809-15.11 4.446 7-4.649 12.59-10.555 17.415-17.239Zm-13.875 18.192c4.804-1.637 9.586-3.336 14.277-5.29-3.297 5.934-9.258 4.262-14.277 5.29Zm13.906-.977a192.106 192.106 0 0 0 15.941-5.652c-4.73 3.554-10.214 4.949-15.941 5.652Zm16.969-7.543c-5.434 2.66-11.024 4.863-17.121 6.34 1.992-3.363 4.437-5.715 7.691-7.34 2.184-1.094 4.117-2.687 6.156-4.062 1.399-.946 3.133-.172 4.348 1.898.883 1.5.496 2.395-1.074 3.164Zm7.664-4.508c-.684.457-1.418.852-2.07 1.348-1.665 1.258-3.024 1.836-4.083-.781-.406-1.016-1.62-1.7-2.406-2.477 5.188-5.781 11.113-10.195 18.98-10.887-.917 2.942-6.984 10.477-10.421 12.797Zm7.3-5.875c3.153-3.629 4.254-9.27 10.008-10.203-.734 1.953-6.488 8.028-10.007 10.203Zm15.176-16.543c-1.968 3.371-5.109 5.055-8.547 6.461 2.149-4.824 4.036-9.625 5.364-14.629.246-.921.558-.851 1.215-.433 3.054 1.945 3.785 5.5 1.968 8.601Zm-1.691-9.59c-.684-.546-.774-1.062-.64-1.917.984-6.266 2.238-12.461 4.288-18.477.235-.684.473-1.32 1.266-1.7 3.32-1.581 6.313-3.648 9.14-7.019-.89 12.711-3.949 24.04-10.14 35.004-.781-2.738-2.14-4.484-3.914-5.89Zm0 0"/></g></g></g><path d="M113.833 149.848v-8.46c0-.247-.246-.551-.675-.551h-7.973c-12.203 0-28.758 3.554-28.758 24.527 0 21.77 16.742 24.527 28.758 24.527h7.973c.43 0 .675-.304.675-.55v-30.047H95.005v9.382h9.446v12.262c-10.668.551-18.582-3.926-18.582-15.574 0-15.148 12.632-15.762 18.582-15.516ZM142.22 180.755h-26.492v8.586c0 .246.305.55.676.55h25.817c.425 0 .672-.304.672-.55v-7.973c0-.309-.247-.613-.672-.613Zm-17.109-9.383v-29.985c0-.246-.246-.55-.613-.55h-8.094c-.37 0-.676.304-.676.55v29.985ZM172.507 165.485c0-2.574-2.023-4.66-4.598-4.66-2.578 0-4.601 2.086-4.601 4.66a4.594 4.594 0 0 0 4.601 4.602 4.594 4.594 0 0 0 4.598-4.602Zm19.008-.184c0-12.203-7.91-24.464-23.547-24.464-15.879 0-23.668 12.261-23.668 24.464 0 12.266 7.79 24.59 23.668 24.59 15.637 0 23.547-12.324 23.547-24.59Zm-9.195.184c0 7.91-4.844 15.82-14.352 15.82-9.625 0-14.41-7.91-14.41-15.82 0-8.031 4.785-16.004 14.41-16.004 9.508 0 14.352 7.973 14.352 16.004ZM217.755 155.43c0 5.395-7.235 5.395-7.235 5.395h-7.36v-11.223h7.36s7.235-.058 7.235 5.828Zm9.382-.554c0-14.41-16.617-14.04-16.617-14.04h-16.004c-.37 0-.676.305-.676.551v28.575h16.68s7.91-.368 7.91 5.398c0 4.719-4.843 5.578-7.91 5.578h-7.297v8.953h7.297c3.313 0 17.293-.613 17.293-14.289 0 0 .305-7.601-7.48-10.238 3.738-1.535 6.804-4.785 6.804-10.488ZM268.032 189.157l-18.64-47.953c-.184-.492-1.043-.492-1.227 0l-18.578 47.953c-.184.367.058.734.613.734h8.399c.246 0 .554-.12.613-.367l9.566-27.348 9.688 27.348c.062.246.37.367.554.367h8.461c.43 0 .735-.367.551-.734ZM296.483 180.755H269.99v8.586c0 .246.304.55.675.55h25.817c.425 0 .672-.304.672-.55v-7.973c0-.309-.247-.613-.672-.613Zm-17.11-9.383v-29.985c0-.246-.246-.55-.613-.55h-8.094c-.37 0-.675.304-.675.55v29.985ZM107.943 243.611l-11.219-42.64h11.422l4.484 21.078c.188.73.38 1.71.578 2.937.207 1.219.563 3.574 1.063 7.063.133-.864.394-2.52.781-4.97.383-2.445.664-4.097.844-4.952l4.36-21.157h11.015l4.484 21.079c.176.73.367 1.71.578 2.937.207 1.219.555 3.574 1.047 7.063.145-.864.41-2.52.797-4.97.383-2.445.664-4.097.844-4.952l4.344-21.157h11.093l-11.156 42.641H131.13l-2.718-12.922c-.45-2.176-.903-4.46-1.36-6.86a357.83 357.83 0 0 1-1.422-7.968c-.73 4.043-1.297 7.086-1.703 9.125-.406 2.031-.793 3.934-1.156 5.703l-2.719 12.922ZM196.403 222.252c0 7.761-1.579 13.375-4.735 16.843-3.148 3.47-8.258 5.204-15.328 5.204-7.387 0-12.574-1.63-15.562-4.891-2.993-3.27-4.485-8.988-4.485-17.156 0-7.75 1.57-13.344 4.719-16.782 3.144-3.445 8.254-5.171 15.328-5.171 7.395 0 12.586 1.632 15.578 4.89 2.988 3.262 4.485 8.95 4.485 17.063Zm-28.157 9.125c.594 1.125 1.469 1.918 2.625 2.375 1.157.449 2.977.672 5.469.672 2.5 0 4.328-.223 5.484-.672 1.157-.457 2.024-1.25 2.61-2.375.457-.907.785-2.082.984-3.532.207-1.457.313-3.32.313-5.593 0-2.301-.106-4.188-.313-5.657-.199-1.476-.527-2.671-.984-3.578-.543-1.187-1.39-2.015-2.547-2.484-1.156-.477-3.008-.719-5.547-.719-2.531 0-4.375.242-5.531.719-1.156.469-2.012 1.297-2.563 2.484-.449.907-.777 2.102-.984 3.578-.2 1.47-.297 3.356-.297 5.657 0 2.273.098 4.136.297 5.593.207 1.45.535 2.625.984 3.532ZM212.033 229.877v13.734h-10.531v-42.64h15.578c6.57 0 11.238 1.117 14 3.343 2.758 2.219 4.14 5.914 4.14 11.078 0 3.492-.734 6.336-2.202 8.532-1.47 2.199-3.703 3.796-6.703 4.796l10.406 14.891h-12.64l-8.845-13.734Zm12.516-14.485c0-1.812-.547-3.078-1.64-3.797-1.087-.726-3.028-1.093-5.829-1.093h-5.047v10.875h5.047c2.8 0 4.742-.442 5.828-1.328 1.094-.883 1.64-2.438 1.64-4.657ZM263.109 221.642l15.968 21.97H265.75l-11.625-17.407h-2.86v17.406h-10.53v-42.64h10.53v16.796h2.86l11.766-16.797h12.656Zm0 0"/></svg>