<svg aria-hidden="true" style="position: absolute; width: 0; height: 0; overflow: hidden;" version="1.1" xmlns="http://www.w3.org/2000/svg" xmlns:xlink="http://www.w3.org/1999/xlink">
<defs>
<symbol id="icon-logo" viewBox="0 0 32 32">
<path d="M15.985 8.9c-3.869-0-7.085 3.19-7.086 7.028-0.001 4.007 3.135 7.179 7.099 7.18 3.909 0 7.088-3.18 7.092-7.097 0.005-3.913-3.191-7.111-7.105-7.111zM21.702 15.253c-0.003-0.012-0.004-0.025-0.006-0.038-0.020-0.098-0.106-0.242-0.047-0.283 0.085-0.061 0.202 0.051 0.306 0.086 0.072 0.024 0.135 0.072 0.206 0.101 0.102 0.042 0.166 0.099 0.117 0.21-0.020 0.494-0.070 0.976-0.179 1.45-0.010 0.043-0.032 0.086-0.033 0.129-0.003 0.079-0.063 0.103-0.115 0.101-0.078-0.002-0.048-0.078-0.048-0.121-0.002-0.553-0.084-1.097-0.2-1.636zM12.694 20.957c0.008-0.017 0.016-0.034 0.024-0.051 0.311 0.044 0.623 0.088 0.985 0.138-0.239 0.076-0.428 0.167-0.625 0.192-0.196 0.025-0.255-0.185-0.384-0.28zM12.959 21.632c0.112 0.177 0.234 0.348 0.378 0.56-0.297-0.115-0.532-0.241-0.768-0.367-0.091-0.049-0.080-0.102-0.021-0.165 0.026-0.028 0.052-0.056 0.081-0.081 0.19-0.163 0.196-0.158 0.33 0.053zM12.745 20.821c-0.081-0.016-0.118-0.059-0.144-0.131-0.207-0.582-0.335-1.181-0.402-1.794-0.022-0.198-0.027-0.397-0.047-0.594-0.011-0.107 0.014-0.162 0.133-0.179 0.278-0.040 0.556-0.086 0.83-0.148 0.142-0.032 0.177 0.037 0.201 0.144 0.094 0.422 0.22 0.836 0.36 1.245 0.159 0.465 0.341 0.921 0.563 1.36 0.109 0.214 0.106 0.216-0.126 0.259-0.031 0.006-0.063 0.011-0.087 0.016-0.433-0.054-0.859-0.097-1.28-0.177zM10.078 15.125c0.013 0.34 0.026 0.68 0.089 1.015 0.052 0.276 0.108 0.552 0.159 0.829 0.008 0.041 0.055 0.087 0.013 0.124-0.038 0.034-0.081 0-0.122-0.018-0.069-0.035-0.197-0.091-0.325-0.145l-0.061-0.022c-0.113-0.045-0.16-0.121-0.131-0.24 0.033-0.502 0.086-1.003 0.196-1.495 0.005-0.025 0.022-0.047 0.028-0.071 0.014-0.058 0.049-0.096 0.108-0.087 0.063 0.009 0.045 0.070 0.046 0.11zM10.158 14.537c-0.014-0.377 0.194-0.714 0.348-1.069 0.029-0.065 0.069-0.075 0.137-0.042 0.566 0.277 1.168 0.44 1.782 0.567 0.047 0.010 0.147-0.017 0.132 0.093-0.011 0.083-0.019 0.154-0.134 0.175-0.556 0.1-1.114 0.2-1.654 0.375-0.145 0.047-0.297 0.081-0.433 0.147-0.173 0.083-0.194 0.008-0.179-0.137 0.003-0.025 0-0.051 0-0.108zM19.278 11.115c-0.315-0.046-0.621-0.091-0.927-0.135 0-0.011 0.001-0.021 0.002-0.031 0.169-0.054 0.337-0.11 0.506-0.162 0.138-0.042 0.311 0.090 0.419 0.329zM19.013 10.368c-0.108-0.17-0.225-0.334-0.36-0.534 0.301 0.107 0.545 0.24 0.787 0.377 0.059 0.034 0.054 0.080 0.010 0.126-0.022 0.023-0.042 0.048-0.065 0.071-0.201 0.195-0.226 0.19-0.372-0.040zM19.222 11.192c0.091 0.016 0.129 0.056 0.158 0.137 0.217 0.599 0.343 1.217 0.409 1.848 0.019 0.185 0.025 0.371 0.044 0.555 0.010 0.095-0.024 0.144-0.115 0.161-0.302 0.053-0.604 0.104-0.905 0.163-0.124 0.024-0.122-0.073-0.137-0.136-0.102-0.433-0.228-0.859-0.373-1.28-0.159-0.464-0.341-0.919-0.564-1.356-0.111-0.218-0.104-0.227 0.133-0.243 0.057-0.004 0.115-0.005 0.169-0.008 0.398 0.037 0.79 0.092 1.181 0.158zM20.845 13.579c-0.25 0.078-0.501 0.151-0.751 0.227-0.153 0.047-0.179-0.013-0.185-0.137-0.028-0.571-0.109-1.134-0.248-1.689-0.057-0.228-0.129-0.451-0.194-0.677 0.267 0.195 0.462 0.447 0.654 0.702 0.317 0.421 0.582 0.873 0.825 1.34 0.073 0.14 0.043 0.189-0.102 0.233zM21.089 13.659c0.143 0.339 0.285 0.678 0.386 1.072-0.505-0.156-0.973-0.291-1.456-0.364-0.042-0.006-0.067-0.028-0.082-0.068-0.078-0.214 0.006-0.379 0.229-0.433 0.308-0.076 0.564-0.158 0.813-0.254l-0.046 0.016c0.057-0.021 0.118-0.061 0.157 0.032zM19.843 14.902c-0.049 0.898-0.185 1.78-0.402 2.652-0.035 0.14-0.137 0.167-0.241 0.16-0.114-0.008-0.071-0.12-0.071-0.186 0.002-1.045-0.122-2.075-0.343-3.094-0.023-0.107-0.017-0.183 0.136-0.155 0.275 0.049 0.553 0.082 0.83 0.121 0.086 0.012 0.095 0.066 0.093 0.138-0.004 0.122-0.001 0.243-0.001 0.365zM19.238 17.961c-0.043-0.014-0.118 0.011-0.105-0.072 0.013-0.090 0.090-0.095 0.161-0.098 0.043-0.002 0.076 0.012 0.063 0.069-0.023 0.050-0.021 0.133-0.119 0.101zM19.277 18.133c-0.038 0.106-0.075 0.213-0.112 0.319-0.013-0.001-0.026-0.002-0.039-0.002v-0.343c0-0.060 0.027-0.078 0.085-0.061 0.046 0.013 0.089 0.022 0.066 0.087zM16.582 17.717c-0.136 0.004-0.115-0.093-0.11-0.173 0.033-0.512 0.040-1.025 0.075-1.538 0-0.513 0.003-1.026-0.002-1.539-0.001-0.114 0.029-0.149 0.149-0.157 0.485-0.033 0.973-0.030 1.455-0.103 0.025-0.004 0.051-0.001 0.077-0.002 0.396-0.006 0.423 0.009 0.504 0.392 0.128 0.605 0.202 1.218 0.26 1.835 0.036 0.377 0.009 0.757 0.067 1.131 0.023 0.147-0.048 0.179-0.179 0.2-0.769 0.124-1.53-0.068-2.296-0.046zM17.596 17.839c-0.337 0.049-0.673 0.092-1.012 0.075-0.046-0.002-0.113 0.018-0.111-0.065 0.002-0.066 0.056-0.061 0.099-0.059 0.341 0.015 0.683 0.032 1.024 0.048zM16.404 17.558c0.002 0.119-0.044 0.156-0.16 0.15-0.185-0.010-0.372-0.014-0.557-0.004-0.133 0.007-0.179-0.031-0.177-0.169 0.007-0.513 0.078-2.567 0.073-3.080-0.001-0.111 0.035-0.145 0.143-0.14 0.179 0.008 0.36 0.013 0.538 0 0.159-0.012 0.212 0.036 0.205 0.201-0.037 0.821-0.009 1.643-0.057 2.464-0.011 0.192-0.012 0.385-0.008 0.578zM15.268 17.719c-0.563 0.018-1.126 0.049-1.688 0.082-0.197 0.011-0.27-0.071-0.31-0.264-0.201-0.96-0.289-1.932-0.338-2.909-0.018-0.365-0.012-0.341 0.346-0.391 0.368-0.051 0.727-0.007 1.090 0.012 0.304 0.016 0.671 0.047 0.986 0.062 0.050 0.003 0.089 0.043 0.089 0.093 0 0 0 0 0 0v0 3.12c0.002 0.135-0.025 0.191-0.176 0.196zM15.331 17.914c-0.322-0.014-0.643-0.030-0.965-0.046v-0.034c0.323-0.015 0.646-0.030 0.968-0.044 0.041-0.002 0.097-0.013 0.102 0.054 0.006 0.082-0.058 0.072-0.105 0.070zM12.128 17.839c-0.011-0.064-0.027-0.149 0.095-0.13 0.212 0.033 0.426 0.061 0.639 0.092 0.093 0.013 0.187 0.028 0.28 0.041l0.006 0.035c-0.315 0.060-0.628 0.137-0.946 0.173-0.124 0.014-0.061-0.136-0.074-0.211zM13.033 17.738c-0.254-0.058-0.514-0.091-0.773-0.12-0.127-0.014-0.14-0.074-0.127-0.177 0.014-0.114 0.018-0.23 0.026-0.345 0.028-0.893 0.168-1.769 0.383-2.635 0.034-0.137 0.116-0.153 0.222-0.146 0.121 0.008 0.079 0.114 0.086 0.177 0.035 0.331 0.015 0.665 0.043 0.998 0.059 0.701 0.152 1.394 0.298 2.081 0.033 0.158 0.024 0.209-0.158 0.168zM12.787 13.979c-0.073-0.009-0.1-0.046-0.075-0.117l0.112-0.314c0.013 0.003 0.025 0.007 0.038 0.010 0 0.107 0.001 0.215-0 0.322-0 0.050 0.007 0.108-0.075 0.099zM12.739 14.050c0.055 0.006 0.102 0.016 0.1 0.085-0.003 0.087-0.066 0.079-0.124 0.079-0.043 0-0.099 0.011-0.087-0.062 0.010-0.059 0.033-0.11 0.111-0.102zM15.4 14.22c-0.344 0.008-0.686-0.027-1.027-0.073 0.345-0.003 0.687-0.044 1.030-0.056 0.046-0.002 0.112-0.016 0.111 0.065-0.002 0.080-0.066 0.063-0.114 0.064zM16.301 17.914c-0.121 0.001-0.243 0-0.364 0v-0.001c-0.115 0-0.23 0.001-0.345-0-0.040-0.001-0.078-0.010-0.077-0.062s0.038-0.062 0.077-0.062c0.236-0.001 0.473-0.001 0.709 0 0.040 0 0.079 0.009 0.077 0.061-0.002 0.048-0.035 0.064-0.077 0.064zM16.368 18.152c-0.035 0.608-0.063 1.216-0.098 1.824-0.014 0.249-0.043 0.498-0.056 0.747-0.005 0.089-0.028 0.129-0.122 0.122-0.070-0.006-0.141-0.001-0.211-0.001-0.324 0-0.327 0-0.332-0.333-0.004-0.372-0.035-1.924-0.041-2.328-0.002-0.118 0.023-0.175 0.157-0.167 0.191 0.011 0.384 0.008 0.576 0.002 0.103-0.003 0.133 0.035 0.128 0.134zM15.685 14.091c0.121-0.001 0.243-0 0.364-0v-0.001c0.102 0 0.204-0.002 0.306 0.001 0.048 0.001 0.111-0.013 0.109 0.068-0.001 0.061-0.048 0.068-0.094 0.071-0.23 0.017-0.459 0.013-0.689-0.004-0.038-0.003-0.079-0.008-0.082-0.060-0.004-0.062 0.037-0.075 0.086-0.075zM16.553 14.148c0.006-0.067 0.061-0.058 0.102-0.053 0.29 0.041 0.583 0.030 0.873 0.054-0.289 0.087-0.583 0.059-0.874 0.073-0.050 0.003-0.109 0.005-0.102-0.074zM19.843 14.29c-0.010 0.065-0.071 0.018-0.111 0.012-0.319-0.047-0.639-0.094-1.005-0.148 0.363-0.066 0.68-0.125 0.998-0.181 0.040-0.007 0.104-0.030 0.113 0.032 0.013 0.094 0.020 0.192 0.005 0.285zM18.592 13.938c0.027 0.105-0.011 0.16-0.122 0.159-0.077-0.001-0.154 0-0.231 0-0.524-0.024-1.046-0.090-1.571-0.074-0.092 0.003-0.123-0.031-0.122-0.122 0.014-0.866-0.024-1.732-0.044-2.598-0.003-0.111 0.037-0.139 0.143-0.145 0.261-0.013 0.523-0.036 0.783-0.066 0.087-0.010 0.127 0.017 0.163 0.088 0.447 0.878 0.757 1.806 1 2.759zM16.597 11.091c-0.056 0.008-0.103-0.004-0.106-0.076-0.003-0.076 0.048-0.081 0.102-0.078 0.272 0.014 0.544 0.029 0.816 0.043-0.265 0.098-0.542 0.071-0.812 0.111zM17.326 10.899c-0.262-0.011-0.524-0.026-0.786-0.039-0.047-0.002-0.065-0.030-0.068-0.074-0.026-0.394-0.053-0.788-0.083-1.224 0.431 0.375 0.73 0.793 0.988 1.245 0.041 0.072 0.018 0.095-0.051 0.093zM16.322 11.093h-0.248v0.001c-0.064 0-0.127 0.002-0.191-0.001-0.042-0.002-0.097 0.006-0.089-0.065 0.005-0.044 0.012-0.096 0.071-0.096 0.159-0.001 0.318 0 0.477 0.003 0.049 0.001 0.058 0.038 0.061 0.080 0.003 0.060-0.029 0.078-0.081 0.078zM15.934 11.176c0.019 0.003 0.039 0.002 0.058 0.002 0.432 0.004 0.436 0.004 0.444 0.451 0.007 0.34 0.030 1.829 0.037 2.233 0.003 0.137-0.055 0.16-0.173 0.153-0.113-0.007-0.246-0.012-0.379-0.012-0.062 0-0.125 0.001-0.187 0.003l0.009-0c-0.105 0.003-0.134-0.035-0.129-0.134 0.021-0.423 0.032-0.847 0.057-1.269 0.026-0.429 0.071-0.856 0.097-1.285 0.007-0.122 0.054-0.159 0.165-0.141zM15.577 11.092c-0.342-0.023-0.683-0.049-1.024-0.074 0.002-0.015 0.004-0.029 0.006-0.044 0.337-0.015 0.674-0.031 1.012-0.043 0.054-0.002 0.137-0.033 0.139 0.076 0.003 0.105-0.073 0.089-0.133 0.085zM15.558 11.164c0.088-0 0.139 0.012 0.131 0.128-0.059 0.857-0.111 1.715-0.162 2.573-0.006 0.096-0.020 0.157-0.137 0.155-0.551-0.010-1.1 0.031-1.557 0.076-0.33 0.011-0.56-0.055-0.796-0.075-0.137-0.012-0.085-0.107-0.091-0.186-0.068-0.901 0.429-1.607 0.801-2.359 0.17-0.344 0.37-0.513 0.781-0.402 0.331 0.090 0.685 0.090 1.031 0.089zM13.065 12.626c-0.044-0.218 0.029-0.427 0.064-0.636 0.043-0.256 0.125-0.505 0.181-0.759 0.023-0.104 0.067-0.153 0.178-0.152 0.133 0.002 0.263-0.058 0.429-0.020-0.327 0.515-0.599 1.033-0.852 1.566zM13.391 10.703c-0.028 0.062-0.083 0.051-0.131 0.032-0.117-0.047-0.243-0.074-0.354-0.162 0.225-0.176 0.452-0.334 0.753-0.484-0.104 0.239-0.184 0.427-0.267 0.614zM12.908 10.676c0.092 0.044 0.188 0.078 0.282 0.119 0.053 0.024 0.142 0.016 0.13 0.11-0.011 0.087-0.075 0.125-0.159 0.138-0.252 0.041-0.503 0.087-0.755 0.126-0.067 0.010-0.129 0.064-0.236 0.013 0.196-0.17 0.377-0.329 0.56-0.486 0.053-0.046 0.111-0.052 0.178-0.020zM13.184 11.123c0.017-0.002 0.035 0.010 0.059 0.018-0.181 0.621-0.278 1.254-0.353 1.893-0.034 0.286-0.172 0.559-0.263 0.838-0.020 0.062-0.060 0.067-0.12 0.054-0.615-0.126-1.22-0.278-1.79-0.551-0.104-0.050-0.123-0.088-0.065-0.195 0.353-0.65 0.791-1.237 1.294-1.776 0.030-0.032 0.068-0.068 0.107-0.077 0.374-0.084 0.748-0.164 1.13-0.204zM10.681 12.942c-0.038 0.066-0.073 0.135-0.113 0.199-0.026 0.042-0.025 0.124-0.114 0.086-0.074-0.032-0.085-0.087-0.064-0.157 0.044-0.146 0.086-0.294 0.133-0.439 0.033-0.103 0.085-0.201 0.111-0.306 0.149-0.607 0.575-0.86 1.183-0.912-0.449 0.473-0.82 0.98-1.135 1.529zM10.398 13.294c0.038 0.016 0.081 0.032 0.046 0.094-0.051 0.089-0.077 0.193-0.154 0.279-0.044-0.12 0.025-0.217 0.031-0.321 0.002-0.041 0.031-0.072 0.078-0.052zM10.157 15.096c-0-0.077-0.009-0.151 0.087-0.188 0.69-0.266 1.409-0.42 2.138-0.547 0.089-0.011 0.106 0.031 0.083 0.114-0.184 0.668-0.289 1.349-0.357 2.037-0.030 0.306-0.039 0.614-0.050 0.921-0.004 0.104-0.023 0.153-0.143 0.127-0.441-0.095-0.879-0.2-1.309-0.337-0.093-0.030-0.152-0.073-0.177-0.174-0.159-0.642-0.267-1.29-0.272-1.953zM11.94 17.647c0.15 0.024 0.118 0.143 0.112 0.238-0.005 0.089 0.052 0.196-0.112 0.236-0.303 0.073-0.6 0.174-0.896 0.271-0.071 0.023-0.12 0.035-0.155-0.045-0.146-0.338-0.282-0.679-0.383-1.059 0.487 0.147 0.954 0.283 1.434 0.359zM11.325 18.373c0.182-0.057 0.368-0.102 0.551-0.16 0.127-0.040 0.184-0.034 0.194 0.131 0.041 0.677 0.139 1.347 0.334 1.999 0.039 0.133 0.082 0.264 0.124 0.396-0.588-0.557-1.038-1.197-1.401-1.899-0.178-0.345-0.174-0.349 0.198-0.466zM13.393 18.092c-0.027-0.106-0.015-0.146 0.108-0.171 0.26-0.052 0.513 0.009 0.764 0.032 0.344 0.031 0.69 0.011 1.034 0.055 0.121 0.015 0.146 0.052 0.144 0.162-0.005 0.423 0.033 2.102 0.039 2.519 0.001 0.109-0.016 0.159-0.141 0.164-0.242 0.010-0.484 0.038-0.725 0.068-0.125 0.015-0.194-0.023-0.253-0.14-0.43-0.858-0.73-1.761-0.969-2.688zM15.394 20.933c0.054-0.003 0.087 0.011 0.090 0.070 0.004 0.065-0.039 0.073-0.087 0.071-0.28-0.013-0.559-0.026-0.839-0.040 0.276-0.080 0.556-0.084 0.836-0.101zM15.402 21.151c0.067 0 0.107 0.030 0.112 0.102 0.026 0.376 0.052 0.753 0.077 1.129 0.001 0.009-0.012 0.019-0.033 0.049-0.416-0.37-0.728-0.809-0.981-1.28 0.279 0 0.552 0 0.824 0zM15.657 20.92c0.152-0.003 0.304-0.004 0.456-0.005 0.044 0 0.072 0.021 0.070 0.069-0.002 0.046-0.010 0.092-0.070 0.093-0.076 0.002-0.152 0.001-0.228 0.001v-0.002c-0.070 0-0.139 0.001-0.209 0-0.046-0-0.090-0.003-0.092-0.067-0.002-0.052 0.018-0.088 0.073-0.089zM16.238 21.278c0.007-0.083 0.041-0.11 0.118-0.113 0.484-0.019 0.969-0.040 1.505-0.063-0.486 0.658-1.003 1.204-1.696 1.56-0.032 0.016-0.069 0.052-0.101 0.016-0.015-0.017-0.007-0.060-0.002-0.090 0.085-0.433 0.139-0.87 0.175-1.309zM16.276 21.003c0.004-0.085 0.063-0.085 0.122-0.081 0.248 0.019 0.496 0.039 0.744 0.059 0.076 0.006 0.151 0.010 0.227 0.016-0.327 0.089-0.659 0.078-0.989 0.081-0.050 0-0.107 0.006-0.103-0.074zM17.795 20.983c-0.441-0.083-0.888-0.121-1.335-0.133-0.166-0.005-0.174-0.056-0.162-0.201 0.054-0.69 0.091-1.382 0.134-2.073 0.004-0.071 0.002-0.141 0.005-0.212 0.016-0.335 0.017-0.325 0.341-0.354 0.484-0.043 0.97-0.043 1.455-0.093 0.235-0.024 0.48 0.050 0.721 0.082 0.074 0.010 0.082 0.063 0.078 0.129-0.006 0.109-0.002 0.218-0.002 0.327 0.034 0.298-0.058 0.567-0.176 0.835-0.241 0.552-0.511 1.089-0.841 1.594-0.056 0.085-0.108 0.119-0.218 0.098zM18.922 19.379c0.040 0.22-0.034 0.429-0.067 0.639-0.039 0.244-0.123 0.48-0.171 0.723-0.027 0.136-0.090 0.197-0.225 0.204-0.127 0.007-0.254 0.025-0.416 0.041 0.343-0.53 0.62-1.061 0.878-1.608zM18.761 21.295c0.101 0.049 0.269 0.054 0.288 0.149 0.016 0.081-0.147 0.137-0.235 0.197-0.15 0.103-0.307 0.194-0.462 0.289-0.007-0.010-0.015-0.021-0.022-0.031 0.078-0.174 0.163-0.346 0.23-0.524 0.043-0.114 0.101-0.127 0.201-0.079zM18.789 21.221c-0.050-0.024-0.14-0.013-0.124-0.113 0.015-0.090 0.070-0.117 0.158-0.13 0.327-0.051 0.652-0.112 0.977-0.17l0.022 0.028c-0.198 0.169-0.397 0.337-0.595 0.507-0.048 0.042-0.090 0.026-0.139 0.003-0.099-0.045-0.202-0.079-0.299-0.126zM18.736 20.9c0.187-0.66 0.286-1.305 0.363-1.957 0.031-0.267 0.169-0.52 0.252-0.782 0.030-0.093 0.095-0.075 0.154-0.063 0.609 0.121 1.206 0.279 1.77 0.545 0.102 0.048 0.109 0.099 0.058 0.193-0.372 0.676-0.802 1.259-1.298 1.778l0.003-0.003c-0.035 0.036-0.068 0.070-0.124 0.083-0.379 0.085-0.759 0.165-1.178 0.206zM21.070 19.445c0.118-0.19 0.228-0.384 0.343-0.576 0.027-0.046 0.041-0.117 0.124-0.075 0.063 0.032 0.076 0.084 0.059 0.146-0.126 0.471-0.298 0.924-0.534 1.352-0.023 0.042-0.057 0.070-0.1 0.085-0.244 0.090-0.488 0.179-0.756 0.218 0.308-0.373 0.611-0.742 0.864-1.15zM21.584 18.725c-0.043-0.018-0.076-0.041-0.045-0.1 0.049-0.092 0.092-0.188 0.159-0.326 0.030 0.165-0.025 0.265-0.037 0.37-0.004 0.033-0.025 0.078-0.077 0.056zM21.472 18.561c-0.034 0.070-0.080 0.057-0.14 0.027-0.566-0.279-1.169-0.44-1.785-0.562-0.055-0.011-0.14-0.005-0.12-0.107 0.013-0.067 0.008-0.151 0.1-0.164 0.781-0.113 1.544-0.298 2.286-0.573 0.078 0.517-0.133 0.948-0.342 1.379zM21.582 17.172c-0.615 0.212-1.246 0.351-1.883 0.47-0.204 0.038-0.207 0.028-0.157-0.174 0.235-0.935 0.353-1.886 0.383-2.849 0.004-0.133 0.015-0.185 0.176-0.151 0.436 0.090 0.866 0.198 1.29 0.333 0.092 0.029 0.139 0.078 0.161 0.165 0.157 0.603 0.244 1.216 0.28 1.878 0.060 0.181-0.062 0.263-0.25 0.328zM22.359 15.263c0.381 0.14 0.632 0.478 0.626 0.815-0.004 0.176-0.102 0.297-0.213 0.414-0.168 0.177-0.369 0.305-0.609 0.422 0.111-0.56 0.214-1.096 0.196-1.651zM22.081 12.813c0.493 0.853 0.787 1.754 0.854 2.731-0.167-0.143-0.329-0.277-0.511-0.382-0.073-0.042-0.066-0.101-0.065-0.164 0.011-0.671-0.115-1.32-0.309-1.958-0.029-0.095-0.027-0.095 0.032-0.227zM22.253 14.584c0.007 0.115 0.016 0.23 0.022 0.321 0.030 0.152-0.018 0.175-0.124 0.112-0.006-0.003-0.011-0.007-0.017-0.009-0.42-0.112-0.678-0.363-0.749-0.81-0.027-0.172-0.118-0.337-0.195-0.498-0.053-0.109-0.047-0.165 0.074-0.215 0.212-0.089 0.409-0.21 0.58-0.366 0.084-0.077 0.113-0.071 0.147 0.043 0.139 0.465 0.232 0.938 0.262 1.422zM21.989 12.5c-0.086-0.126-0.173-0.251-0.259-0.376 0.159 0.075 0.244 0.202 0.259 0.376zM21.312 11.438l0.333 0.418c-0.217-0.055-0.239-0.265-0.388-0.375 0.018-0.014 0.036-0.029 0.055-0.043zM21.526 12.044c0.125 0.251 0.246 0.503 0.348 0.765 0.036 0.094 0.026 0.153-0.044 0.219-0.19 0.177-0.414 0.299-0.644 0.411-0.113 0.055-0.129-0.038-0.16-0.102-0.263-0.536-0.575-1.042-0.942-1.512-0.137-0.176-0.283-0.345-0.455-0.553 0.587 0.126 1.113 0.271 1.613 0.504 0.128 0.059 0.22 0.141 0.284 0.269zM21.074 11.477c0.047 0.049 0.091 0.102 0.136 0.152-0.477-0.164-0.948-0.318-1.435-0.405-0.292-0.052-0.444-0.213-0.55-0.464-0.035-0.083-0.029-0.128 0.050-0.17 0.050-0.027 0.113-0.056 0.137-0.101 0.146-0.267 0.296-0.125 0.456-0.018 0.438 0.293 0.84 0.627 1.206 1.007zM19.598 10.023c0.331 0.125 1.107 0.796 1.305 1.133-0.063-0.001-0.089-0.047-0.122-0.076-0.329-0.294-0.677-0.564-1.056-0.791-0.11-0.066-0.153-0.144-0.127-0.266zM19.508 10.12c-0.406-0.246-0.905-0.316-1.249-0.675 0.462 0.141 0.97 0.198 1.249 0.675zM18.157 9.528c-0.316-0.072-0.624-0.162-0.935-0.24 0.325 0.033 0.669-0.017 0.935 0.24zM18.383 9.73c0.25 0.114 0.378 0.393 0.527 0.624 0.052 0.081 0.176 0.204 0.116 0.254-0.101 0.084-0.182-0.068-0.26-0.129-0.595-0.465-1.239-0.839-1.956-1.083-0.047-0.016-0.092-0.036-0.138-0.055 0.595 0.037 1.175 0.145 1.711 0.388zM18.894 10.69c-0.438 0.135-0.828 0.305-1.269 0.222-0.073-0.014-0.115-0.048-0.147-0.105-0.292-0.523-0.636-1.003-1.105-1.385-0.011-0.009-0.009-0.034-0.018-0.077 0.952 0.244 1.768 0.706 2.54 1.346zM16.061 9.329c0.1 0.016 0.215 0.081 0.228 0.223 0.023 0.267 0.052 0.533 0.077 0.8 0.007 0.070 0.006 0.14 0.014 0.21 0.033 0.302 0.034 0.301-0.259 0.297-0.317-0.005-0.317-0.005-0.276-0.32 0.044-0.341 0.084-0.683 0.139-1.023 0.010-0.064-0.008-0.2 0.077-0.187zM15.747 10.736c-0.008 0.118-0.080 0.127-0.171 0.125-0.474-0.011-0.945 0.032-1.458 0.066 0.489-0.689 1.045-1.255 1.824-1.637-0.093 0.508-0.165 0.974-0.195 1.445zM15.6 9.358c-0.198 0.15-0.384 0.282-0.56 0.426-0.349 0.287-0.65 0.621-0.908 0.99-0.091 0.131-0.184 0.147-0.323 0.111-0.368-0.094-0.36-0.087-0.218-0.44 0.138-0.344 0.359-0.577 0.718-0.706 0.394-0.142 0.788-0.282 1.194-0.387 0.023-0.006 0.050 0.002 0.098 0.005zM14.487 9.385c0.22-0.022 0.436-0.087 0.661-0.060-0.336 0.138-0.688 0.221-0.999 0.407-0.022 0.013-0.070 0.010-0.088-0.006-0.029-0.026 0.002-0.058 0.022-0.080 0.109-0.125 0.218-0.243 0.403-0.261zM14.121 9.367c-0.493 0.141-0.974 0.315-1.446 0.513 0.429-0.325 0.928-0.448 1.445-0.513zM12.636 10.016c0.447-0.218 0.906-0.4 1.401-0.503-0.115 0.195-0.221 0.382-0.437 0.489-0.245 0.12-0.471 0.278-0.69 0.443-0.124 0.093-0.262 0.036-0.377-0.148-0.089-0.141-0.030-0.216 0.104-0.281zM12.387 10.163c0.043 0.145 0.124 0.265 0.248 0.352 0.060 0.042 0.074 0.071 0.009 0.127-0.227 0.196-0.448 0.4-0.674 0.596-0.090 0.078-0.214 0.075-0.322 0.11-0.191 0.063-0.385 0.118-0.623 0.19 0.37-0.583 0.736-1.1 1.362-1.376zM11.333 10.91c-0.26 0.311-0.349 0.789-0.885 0.873 0.276-0.344 0.559-0.63 0.885-0.873zM10.221 12.092c0.158-0.148 0.345-0.258 0.595-0.351-0.217 0.432-0.378 0.835-0.49 1.256-0.032 0.12-0.073 0.090-0.14 0.033-0.317-0.268-0.31-0.613 0.035-0.938zM9.851 12.651c0.086 0.229 0.212 0.39 0.378 0.521 0.056 0.044 0.023 0.11 0.013 0.163-0.089 0.514-0.176 1.028-0.356 1.521-0.025 0.070-0.049 0.133-0.129 0.174-0.272 0.139-0.53 0.301-0.757 0.59 0.062-1.077 0.328-2.037 0.85-2.97zM9.010 15.889c0.077-0.425 0.456-0.576 0.8-0.792-0.052 0.305-0.106 0.572-0.139 0.84-0.032 0.265-0.044 0.532-0.067 0.836-0.348-0.224-0.675-0.438-0.593-0.885zM9.915 19.149c-0.063 0.028-0.070-0.043-0.088-0.076-0.448-0.818-0.726-1.687-0.807-2.673 0.169 0.197 0.325 0.328 0.502 0.43 0.072 0.042 0.089 0.103 0.090 0.177 0.012 0.685 0.123 1.354 0.327 2.008 0.016 0.050 0.033 0.108-0.025 0.134zM9.997 18.864c-0.137-0.458-0.239-0.922-0.259-1.4-0.007-0.166-0.070-0.328-0.029-0.508 0.213 0.090 0.411 0.175 0.611 0.255 0.067 0.027 0.099 0.075 0.118 0.14 0.114 0.39 0.237 0.718 0.382 1.034l-0.019-0.046c0.045 0.1 0.029 0.147-0.069 0.189-0.218 0.094-0.422 0.213-0.599 0.374-0.067 0.060-0.1 0.082-0.135-0.036zM10.493 20.034c-0.157-0.269-0.274-0.557-0.39-0.845-0.032-0.079-0.016-0.133 0.040-0.188 0.19-0.187 0.42-0.31 0.658-0.422 0.118-0.056 0.127 0.049 0.157 0.109 0.282 0.57 0.617 1.105 1.015 1.601 0.111 0.138 0.227 0.273 0.379 0.456-0.632-0.134-1.194-0.29-1.722-0.557-0.069-0.035-0.103-0.094-0.137-0.154zM10.793 20.384c0.381 0.127 0.757 0.26 1.147 0.349 0.087 0.020 0.173 0.052 0.26 0.059 0.304 0.025 0.458 0.215 0.561 0.477 0.026 0.066 0.033 0.126-0.034 0.141-0.171 0.040-0.225 0.356-0.411 0.252-0.582-0.327-1.085-0.762-1.524-1.279zM12.381 22.013c-0.529-0.313-0.963-0.714-1.354-1.188 0.068-0.013 0.090 0.033 0.117 0.059 0.344 0.317 0.711 0.602 1.111 0.843 0.108 0.065 0.148 0.146 0.125 0.286zM12.464 21.84c0.413 0.306 0.91 0.367 1.272 0.709-0.386 0.041-1.191-0.384-1.272-0.709zM13.77 22.461c0.339 0.089 0.637 0.166 0.934 0.244-0.314-0.014-0.642 0.031-0.934-0.244zM13.885 22.404c-0.504-0.134-0.683-0.563-0.93-0.937-0.014-0.022-0.024-0.047-0.005-0.070 0.025-0.029 0.057-0.025 0.086-0.007 0.017 0.010 0.032 0.021 0.047 0.034 0.652 0.549 1.381 0.964 2.186 1.255-0.475-0.026-0.927-0.153-1.383-0.274zM15.069 22.499c-0.679-0.248-1.291-0.615-1.854-1.067-0.112-0.090-0.094-0.13 0.029-0.164 0.356-0.098 0.705-0.234 1.086-0.168 0.058 0.010 0.114 0.007 0.147 0.068 0.297 0.544 0.669 1.028 1.134 1.44 0.007 0.006 0.004 0.023 0.008 0.047-0.196-0.014-0.372-0.092-0.549-0.156zM15.916 22.682c-0.088-0.010-0.194-0.065-0.212-0.165-0.071-0.417-0.087-0.84-0.119-1.261-0.006-0.079 0.039-0.098 0.108-0.095 0.064 0.003 0.128 0.001 0.192 0.001 0.279 0.016 0.279 0.016 0.253 0.307-0.031 0.357-0.074 0.712-0.149 1.062-0.012 0.055 0.017 0.161-0.072 0.15zM16.057 23.036c-0.034 0.001-0.099 0.029-0.093-0.051 0.004-0.066 0.044-0.086 0.105-0.075 0.068 0.013 0.133 0.031 0.207 0.089-0.081 0.051-0.152 0.036-0.219 0.037zM17.91 21.169c0.057-0.079 0.118-0.109 0.206-0.049 0.015 0.010 0.036 0.012 0.055 0.017 0.37 0.088 0.362 0.085 0.221 0.429-0.134 0.327-0.33 0.569-0.678 0.695-0.423 0.154-0.838 0.325-1.289 0.379 0.597-0.397 1.074-0.901 1.486-1.471zM16.726 22.721c0.41-0.14 0.818-0.285 1.218-0.451-0.281 0.506-0.79 0.364-1.218 0.451zM17.913 22.638c0.576-0.176 1.027-0.34 1.469-0.522l-0.109 0.040c-0.404 0.303-0.872 0.422-1.36 0.482zM19.361 21.994c-0.464 0.227-0.941 0.415-1.461 0.541 0.17-0.287 0.379-0.488 0.656-0.626 0.186-0.093 0.351-0.229 0.525-0.347 0.119-0.081 0.267-0.015 0.371 0.162 0.075 0.128 0.042 0.204-0.092 0.27zM20.015 21.609c-0.058 0.039-0.121 0.073-0.177 0.115-0.142 0.107-0.258 0.157-0.348-0.067-0.035-0.087-0.138-0.145-0.205-0.211 0.443-0.493 0.948-0.87 1.62-0.929-0.078 0.251-0.596 0.894-0.889 1.092zM20.638 21.108c0.269-0.31 0.363-0.791 0.854-0.871-0.063 0.167-0.554 0.685-0.854 0.871zM21.933 19.696c-0.168 0.288-0.436 0.431-0.729 0.551 0.183-0.412 0.344-0.821 0.458-1.248 0.021-0.079 0.048-0.073 0.104-0.037 0.261 0.166 0.323 0.469 0.168 0.734zM21.789 18.878c-0.058-0.047-0.066-0.091-0.055-0.164 0.084-0.535 0.191-1.063 0.366-1.577 0.020-0.058 0.040-0.113 0.108-0.145 0.283-0.135 0.539-0.311 0.78-0.599-0.076 1.085-0.337 2.051-0.865 2.987-0.067-0.234-0.183-0.383-0.334-0.503z"></path>
<path d="M9.714 12.787v-0.722c0-0.021-0.021-0.047-0.058-0.047h-0.68c-1.041 0-2.454 0.303-2.454 2.093 0 1.858 1.429 2.093 2.454 2.093h0.68c0.037 0 0.058-0.026 0.058-0.047v-2.564h-1.607v0.801h0.806v1.046c-0.91 0.047-1.586-0.335-1.586-1.329 0-1.293 1.078-1.345 1.586-1.324zM12.136 15.424h-2.261v0.733c0 0.021 0.026 0.047 0.058 0.047h2.203c0.036 0 0.057-0.026 0.057-0.047v-0.68c0-0.026-0.021-0.052-0.057-0.052zM10.676 14.624v-2.559c0-0.021-0.021-0.047-0.052-0.047h-0.691c-0.032 0-0.058 0.026-0.058 0.047v2.559zM14.721 14.121c0-0.22-0.173-0.398-0.392-0.398s-0.393 0.178-0.393 0.398c0 0 0 0 0 0.001 0 0.216 0.175 0.392 0.392 0.392 0 0 0 0 0.001 0h-0c0 0 0 0 0 0 0.216 0 0.392-0.175 0.392-0.392 0-0 0-0 0-0.001v0zM16.343 14.106c0-1.041-0.675-2.088-2.009-2.088-1.355 0-2.020 1.046-2.020 2.088 0 1.047 0.665 2.098 2.020 2.098 1.334 0 2.009-1.052 2.009-2.098zM15.558 14.121c0 0.675-0.413 1.35-1.225 1.35-0.821 0-1.23-0.675-1.23-1.35 0-0.685 0.408-1.366 1.23-1.366 0.811 0 1.225 0.68 1.225 1.366zM18.582 13.263c0 0.46-0.617 0.46-0.617 0.46h-0.628v-0.958h0.628s0.617-0.005 0.617 0.497zM19.382 13.216c0-1.23-1.418-1.198-1.418-1.198h-1.366c-0.032 0-0.058 0.026-0.058 0.047v2.438h1.423s0.675-0.031 0.675 0.461c0 0.403-0.413 0.476-0.675 0.476h-0.623v0.764h0.623c0.283 0 1.476-0.052 1.476-1.219 0 0 0.026-0.649-0.638-0.874 0.319-0.131 0.581-0.408 0.581-0.895zM22.872 16.141l-1.591-4.092c-0.016-0.042-0.089-0.042-0.105 0l-1.585 4.092c-0.016 0.031 0.005 0.063 0.052 0.063h0.717c0.021 0 0.047-0.010 0.052-0.031l0.816-2.334 0.827 2.334c0.005 0.021 0.032 0.031 0.047 0.031h0.722c0.037 0 0.063-0.031 0.047-0.063zM25.3 15.424h-2.261v0.733c0 0.021 0.026 0.047 0.058 0.047h2.203c0.036 0 0.057-0.026 0.057-0.047v-0.68c0-0.026-0.021-0.052-0.057-0.052zM23.84 14.624v-2.559c0-0.021-0.021-0.047-0.052-0.047h-0.691c-0.032 0-0.058 0.026-0.058 0.047v2.559zM9.211 20.788l-0.957-3.639h0.975l0.383 1.799c0.016 0.062 0.032 0.146 0.049 0.251s0.048 0.305 0.091 0.603c0.011-0.074 0.034-0.215 0.067-0.424s0.057-0.35 0.072-0.423l0.372-1.805h0.94l0.383 1.799c0.015 0.062 0.031 0.146 0.049 0.251s0.047 0.305 0.089 0.603c0.012-0.074 0.035-0.215 0.068-0.424s0.057-0.35 0.072-0.423l0.371-1.805h0.947l-0.952 3.639h-1.039l-0.232-1.103c-0.038-0.186-0.077-0.381-0.116-0.585-0.013-0.037-0.056-0.267-0.096-0.499l-0.026-0.181c-0.062 0.345-0.111 0.605-0.145 0.779s-0.068 0.336-0.099 0.487l-0.232 1.103zM16.76 18.965c0 0.662-0.135 1.141-0.404 1.437s-0.705 0.444-1.308 0.444c-0.63 0-1.073-0.139-1.328-0.417s-0.383-0.767-0.383-1.464c0-0.661 0.134-1.139 0.403-1.432s0.704-0.441 1.308-0.441c0.631 0 1.074 0.139 1.329 0.417s0.383 0.764 0.383 1.456zM14.357 19.744c0.051 0.096 0.125 0.164 0.224 0.203s0.254 0.057 0.467 0.057c0.213 0 0.369-0.019 0.468-0.057s0.173-0.107 0.223-0.203c0.039-0.077 0.067-0.178 0.084-0.301s0.027-0.283 0.027-0.477c0-0.196-0.009-0.357-0.027-0.483s-0.045-0.228-0.084-0.305c-0.046-0.101-0.119-0.172-0.217-0.212s-0.257-0.061-0.473-0.061c-0.216 0-0.373 0.021-0.472 0.061s-0.172 0.111-0.219 0.212c-0.038 0.077-0.066 0.179-0.084 0.305s-0.025 0.286-0.025 0.483c0 0.194 0.008 0.353 0.025 0.477s0.046 0.224 0.084 0.301zM18.093 19.616v1.172h-0.899v-3.639h1.329c0.561 0 0.959 0.095 1.195 0.285s0.353 0.505 0.353 0.945c0 0.298-0.063 0.541-0.188 0.728s-0.316 0.324-0.572 0.409l0.888 1.271h-1.079l-0.755-1.172zM19.162 18.38c0-0.155-0.047-0.263-0.14-0.324s-0.258-0.093-0.497-0.093h-0.431v0.928h0.431c0.239 0 0.405-0.038 0.497-0.113s0.14-0.208 0.14-0.397zM22.452 18.913l1.363 1.875h-1.137l-0.992-1.485h-0.244v1.485h-0.899v-3.639h0.899v1.433h0.244l1.004-1.433h1.080z"></path>
</symbol>
   <symbol id="icon-phone" viewBox="0 0 32 32"><path fill="none" stroke="#9da4bd" style="stroke: var(--color1, #9da4bd)" stroke-linejoin="round" stroke-linecap="round" stroke-miterlimit="4" stroke-width="1.3333" d="M26.667 21.337v3.217c0 0.003 0 0.006 0 0.009 0 1.186-0.961 2.147-2.147 2.147-0.068 0-0.134-0.003-0.2-0.009l0.008 0.001c-3.481-0.388-6.626-1.563-9.338-3.343l0.081 0.050c-2.608-1.675-4.761-3.828-6.386-6.353l-0.050-0.083c-1.736-2.644-2.912-5.804-3.285-9.205l-0.008-0.095c-0.006-0.058-0.009-0.125-0.009-0.193 0-1.185 0.96-2.145 2.145-2.145h3.219c0.006-0 0.013-0 0.020-0 1.079 0 1.972 0.797 2.123 1.834l0.001 0.012c0.136 1.029 0.387 2.040 0.751 3.013 0.087 0.224 0.137 0.484 0.137 0.755 0 0.588-0.237 1.121-0.62 1.509l-1.362 1.361c1.555 2.7 3.736 4.881 6.353 6.392l0.083 0.044 1.363-1.361c0.388-0.383 0.92-0.619 1.509-0.619 0.271 0 0.53 0.050 0.769 0.142l-0.015-0.005c0.973 0.363 1.984 0.613 3.013 0.751 1.050 0.151 1.847 1.045 1.847 2.125 0 0.019-0 0.037-0.001 0.056l0-0.003z"></path>
    </symbol>
    <symbol id="icon-map-pin" viewBox="0 0 32 32">
    <path fill="none" stroke="#9da4bd" style="stroke: var(--color1, #9da4bd)" stroke-linejoin="round" stroke-linecap="round" stroke-miterlimit="4" stroke-width="1.3333" d="M26.667 13.819c0 7.635-10.667 14.181-10.667 14.181s-10.667-6.547-10.667-14.181c0-5.423 4.776-9.819 10.667-9.819s10.667 4.396 10.667 9.819v0z"></path>
    <path fill="none" stroke="#9da4bd" style="stroke: var(--color1, #9da4bd)" stroke-linejoin="round" stroke-linecap="round" stroke-miterlimit="4" stroke-width="1.3333" d="M16 18.667c2.209 0 4-1.791 4-4s-1.791-4-4-4v0c-2.209 0-4 1.791-4 4s1.791 4 4 4v0z"></path>
    </symbol>
    <symbol id="icon-mail" viewBox="0 0 32 32">
    <path fill="none" stroke="#9da4bd" style="stroke: var(--color1, #9da4bd)" stroke-linejoin="round" stroke-linecap="round" stroke-miterlimit="4" stroke-width="1.3333" d="M6.4 6.667h19.2c1.32 0 2.4 1.049 2.4 2.333v14c0 1.283-1.080 2.333-2.4 2.333h-19.2c-1.32 0-2.4-1.051-2.4-2.333v-14c0-1.284 1.080-2.333 2.4-2.333z"></path>
    <path fill="none" stroke="#9da4bd" style="stroke: var(--color1, #9da4bd)" stroke-linejoin="round" stroke-linecap="round" stroke-miterlimit="4" stroke-width="1.3333" d="M26.667 9.333l-10.667 8-10.667-8"></path>
    </symbol>
    <symbol id="icon-close" viewBox="0 0 32 32">
<path d="M31.439 3.166l-3.166-3.166-12.554 12.552-12.552-12.552-3.166 3.166 12.552 12.552-12.552 12.554 3.166 3.166 12.552-12.554 12.554 12.554 3.166-3.166-12.554-12.554 12.554-12.552z"></path>
</symbol>
<symbol id="icon-modal-phone" viewBox="0 0 32 32">
<path d="M28.865 21.822l-4.525-0.517c-1.087-0.125-2.155 0.249-2.921 1.015l-3.278 3.278c-5.041-2.565-9.174-6.68-11.739-11.739l3.296-3.296c0.766-0.766 1.14-1.835 1.015-2.921l-0.517-4.489c-0.214-1.799-1.728-3.153-3.545-3.153h-3.082c-2.013 0-3.687 1.675-3.563 3.687 0.944 15.213 13.111 27.362 28.306 28.306 2.013 0.125 3.687-1.55 3.687-3.563v-3.082c0.018-1.799-1.336-3.313-3.135-3.527v0z"></path>
</symbol>
<symbol id="icon-modal-person" viewBox="0 0 32 32">
<path d="M16 16c4.42 0 8-3.58 8-8s-3.58-8-8-8c-4.42 0-8 3.58-8 8s3.58 8 8 8zM16 20c-5.34 0-16 2.68-16 8v2c0 1.1 0.9 2 2 2h28c1.1 0 2-0.9 2-2v-2c0-5.32-10.66-8-16-8z"></path>
</symbol>
<symbol id="icon-modal-email" viewBox="0 0 43 32">
<path d="M37.333 0h-32c-2.2 0-3.98 1.8-3.98 4l-0.020 24c0 2.2 1.8 4 4 4h32c2.2 0 4-1.8 4-4v-24c0-2.2-1.8-4-4-4zM36.533 8.5l-14.14 8.84c-0.64 0.4-1.48 0.4-2.12 0l-14.14-8.84c-0.5-0.32-0.8-0.86-0.8-1.44 0-1.34 1.46-2.14 2.6-1.44l13.4 8.38 13.4-8.38c1.14-0.7 2.6 0.1 2.6 1.44 0 0.58-0.3 1.12-0.8 1.44z"></path>
</symbol>
<symbol id="icon-check-mark" viewBox="0 0 32 32">
<path fill="#404bbf" style="fill: var(--color1, #404bbf)" d="M4 1.25h24c1.519 0 2.75 1.231 2.75 2.75v24c0 1.519-1.231 2.75-2.75 2.75h-24c-1.519 0-2.75-1.231-2.75-2.75v-24c0-1.519 1.231-2.75 2.75-2.75z"></path>
<path fill="#f4f4fd" style="fill: var(--color2, #f4f4fd)" d="M22.892 8.51c0.329-0.319 0.779-0.515 1.274-0.515 1.003 0 1.819 0.806 1.834 1.805l0 0.001c0 0.014 0.001 0.031 0.001 0.047 0 0.482-0.184 0.922-0.486 1.252l0.001-0.001-9.788 12.308c-0.337 0.364-0.818 0.591-1.352 0.591-0.247 0-0.483-0.049-0.699-0.137l0.012 0.004c-0.239-0.099-0.442-0.237-0.612-0.408l-0-0-6.492-6.526c-0.362-0.339-0.588-0.819-0.588-1.352 0-0.251 0.050-0.49 0.14-0.708l-0.005 0.012c0.282-0.684 0.943-1.156 1.715-1.156 0.009 0 0.018 0 0.026 0h-0.001c0.519 0.010 0.984 0.234 1.311 0.587l0.001 0.001 5.138 5.164 8.52-10.916c0.016-0.020 0.032-0.037 0.050-0.054l-0.002-0z"></path>
<path fill="none" stroke="#404bbf" style="stroke: var(--color1, #404bbf)" stroke-linejoin="miter" stroke-linecap="butt" stroke-miterlimit="4" stroke-width="2.5" d="M4 1.25h24c1.519 0 2.75 1.231 2.75 2.75v24c0 1.519-1.231 2.75-2.75 2.75h-24c-1.519 0-2.75-1.231-2.75-2.75v-24c0-1.519 1.231-2.75 2.75-2.75z"></path>
</symbol>
<symbol id="icon-menu" viewBox="0 0 32 32">
<path  d="M6.4 11.734v-2.134h19.2v2.134h-19.2zM6.4 17.066h19.2v-2.133h-19.2v2.133zM6.4 22.4h19.2v-2.134h-19.2v2.134z"></path>
</symbol>
<symbol id="icon-location" viewBox="0 0 32 32">
<path d="M16 0c-5.523 0-10 4.477-10 10 0 10 10 22 10 22s10-12 10-22c0-5.523-4.477-10-10-10zM16 16c-3.314 0-6-2.686-6-6s2.686-6 6-6 6 2.686 6 6-2.686 6-6 6z"></path>
</symbol>
<symbol id="icon-user" viewBox="0 0 32 32">
<path d="M18 22.082v-1.649c2.203-1.241 4-4.337 4-7.432 0-4.971 0-9-6-9s-6 4.029-6 9c0 3.096 1.797 6.191 4 7.432v1.649c-6.784 0.555-12 3.888-12 7.918h28c0-4.030-5.216-7.364-12-7.918z"></path>
</symbol>
<symbol id="icon-credit-card" viewBox="0 0 32 32">
<path d="M29 4h-26c-1.65 0-3 1.35-3 3v18c0 1.65 1.35 3 3 3h26c1.65 0 3-1.35 3-3v-18c0-1.65-1.35-3-3-3zM3 6h26c0.542 0 1 0.458 1 1v3h-28v-3c0-0.542 0.458-1 1-1zM29 26h-26c-0.542 0-1-0.458-1-1v-9h28v9c0 0.542-0.458 1-1 1zM4 20h2v4h-2zM8 20h2v4h-2zM12 20h2v4h-2z"></path>
</symbol>
<symbol id="icon-job-search" viewBox="0 0 32 32">
<path fill="#fff" style="fill: var(--color1, #fff)" d="M12.232 19.412c0-4.194 3.414-7.604 7.603-7.604 1.138 0 2.218 0.258 3.188 0.711v-4.031h-5.812c-0.232 0-0.458-0.095-0.632-0.258-0.163-0.163-0.258-0.39-0.258-0.632v-5.822h-13.653c-0.49 0-0.89 0.395-0.89 0.89v26.662c0 0.49 0.395 0.89 0.89 0.89h19.475c0.49 0 0.89-0.395 0.89-0.89v-3.025c-0.97 0.453-2.044 0.711-3.188 0.711-4.199 0-7.614-3.414-7.614-7.603z"></path>
<path fill="#194f82" style="fill: #ffffff" d="M18.102 3.035v3.673h3.673z"></path>
<path fill="#fff" style="fill: var(--color1, #fff)" d="M19.841 13.579c-3.214 0-5.828 2.614-5.828 5.828s2.619 5.822 5.828 5.822 5.828-2.614 5.828-5.828-2.613-5.822-5.828-5.822z"></path>
<path fill="#194f82" style="fill: var(--color2, #194f82)" d="M19.841 23.459c-2.234 0-4.052-1.813-4.052-4.052s1.813-4.052 4.052-4.052 4.052 1.813 4.052 4.052c0 2.234-1.823 4.052-4.052 4.052z"></path>
<path fill="#194f82" style="fill: var(--color2, #194f82)" d="M4.713 13.589h7.377c0.49 0 0.89-0.395 0.89-0.89 0-0.49-0.395-0.89-0.89-0.89h-7.377c-0.49 0-0.89 0.395-0.89 0.89 0 0.49 0.4 0.89 0.89 0.89z"></path>
<path fill="#194f82" style="fill: var(--color2, #194f82)" d="M4.713 18.163h5.438c0.49 0 0.89-0.395 0.89-0.89 0-0.49-0.395-0.89-0.89-0.89h-5.438c-0.49 0-0.89 0.395-0.89 0.89s0.4 0.89 0.89 0.89z"></path>
<path fill="#194f82" style="fill: var(--color2, #194f82)" d="M4.713 22.737h5.438c0.49 0 0.89-0.395 0.89-0.89s-0.395-0.89-0.89-0.89h-5.438c-0.49 0-0.89 0.395-0.89 0.89s0.4 0.89 0.89 0.89z"></path>
<path fill="#194f82" style="fill: var(--color2, #194f82)" d="M12.090 25.535h-7.377c-0.49 0-0.89 0.395-0.89 0.89 0 0.49 0.395 0.89 0.89 0.89h7.377c0.49 0 0.89-0.395 0.89-0.89-0.005-0.495-0.4-0.89-0.89-0.89z"></path>
<path fill="#194f82" style="fill: var(--color2, #194f82)" d="M3.786 4.347h1.196v2.16c0 0.606-0.332 0.674-0.458 0.674-0.263 0-0.516-0.153-0.764-0.448l-0.464 0.738c0.358 0.427 0.785 0.643 1.265 0.643 0.39 0 1.328-0.158 1.328-1.644v-3.003h-2.102v0.88z"></path>
<path fill="#194f82" style="fill: var(--color2, #194f82)" d="M14.008 5.675c0.068-0.037 0.59-0.227 0.59-0.996 0-1.222-1.154-1.222-1.423-1.222h-1.57v4.605h1.765c0.553 0 1.417-0.158 1.454-1.28 0.026-0.785-0.564-1.043-0.817-1.107zM12.511 4.331h0.432c0.263 0 0.453 0.032 0.569 0.1 0.116 0.063 0.169 0.2 0.169 0.4s-0.063 0.343-0.184 0.395c-0.121 0.063-0.311 0.095-0.553 0.095h-0.427v-0.996h-0.005v0.005zM13.708 7.092c-0.127 0.074-0.321 0.105-0.58 0.105h-0.617v-1.059h0.527c0.3 0 0.516 0.032 0.653 0.1s0.2 0.205 0.2 0.422c0.011 0.216-0.058 0.353-0.184 0.432z"></path>
<path fill="#194f82" style="fill: var(--color2, #194f82)" d="M8.733 3.357c-1.407 0-2.118 1.28-2.118 2.382 0 0.901 0.559 2.382 2.118 2.382 1.407 0 2.118-1.28 2.118-2.382-0.005-0.901-0.564-2.382-2.118-2.382zM9.93 5.738c0 0.711-0.458 1.481-1.196 1.481-0.617 0-1.196-0.617-1.196-1.481h0.005c0-0.711 0.458-1.481 1.196-1.481 0.617-0.005 1.191 0.611 1.191 1.481v0z"></path>
<path fill="#194f82" style="fill: #fff" d="M25.484 24.507c-0.005 0-0.011 0-0.021 0-0.205 0.227-0.422 0.448-0.664 0.648v0.632l4.231 4.231c0.258 0.258 0.717 0.258 0.975 0 0.269-0.269 0.269-0.706 0-0.975l-4.521-4.537z"></path>
<path fill="#194f82" style="fill: var(--color2, #194f82)" d="M31.275 27.779l-4.753-4.763c0.585-1.075 0.933-2.297 0.933-3.609 0-2.292-1.027-4.352-2.64-5.743v-6.070c0-0.232-0.095-0.458-0.258-0.632l-6.713-6.702c-0.163-0.163-0.39-0.258-0.632-0.258h-14.543c-1.47 0-2.666 1.196-2.666 2.666v26.662c0 1.475 1.196 2.672 2.666 2.672h19.475c1.47 0 2.666-1.196 2.666-2.666v-1.033l2.972 2.972c1.001 1.033 2.65 0.896 3.488 0 0.97-0.964 0.97-2.529 0.005-3.494zM30.021 30.019c-0.263 0.258-0.717 0.258-0.975 0l-4.231-4.231v-0.632c0.232-0.2 0.453-0.422 0.664-0.648 0.005 0 0.011 0 0.021 0l4.537 4.537c0.248 0.264 0.248 0.701-0.016 0.975zM25.669 19.412c0 3.214-2.614 5.828-5.828 5.828s-5.828-2.614-5.828-5.828 2.619-5.828 5.828-5.828c3.214-0.005 5.828 2.608 5.828 5.828zM18.102 3.035l3.673 3.673h-3.673v-3.673zM23.029 29.328c0 0.49-0.395 0.89-0.89 0.89h-19.47c-0.49 0-0.89-0.395-0.89-0.89v-26.662c0-0.49 0.395-0.89 0.89-0.89h13.653v5.812c0 0.232 0.095 0.458 0.258 0.632 0.163 0.163 0.39 0.258 0.632 0.258h5.812v4.031c-0.97-0.453-2.044-0.711-3.188-0.711-4.194 0-7.604 3.414-7.604 7.604 0 4.194 3.414 7.604 7.604 7.604 1.138 0 2.218-0.258 3.188-0.711v3.035h0.005z"></path>
</symbol>
<symbol id="icon-document" viewBox="0 0 32 32">
<path fill="#194f82" style="fill: var(--color1, #194f82)" d="M13.061 27.723c0.138-0.139 0.205-0.319 0.202-0.5l0.503-0.502 4.078-0.875c0.417-0.075 0.767-0.357 0.929-0.749 0 0 0.773-1.728 1.243-2.511l-2.801-2.802c-0.783 0.47-2.512 1.243-2.512 1.243-0.392 0.162-0.673 0.512-0.748 0.928l-0.876 4.079-0.501 0.502c-0.182-0.001-0.363 0.065-0.501 0.203-0.271 0.272-0.271 0.712 0 0.983s0.712 0.271 0.983-0zM16.035 22.691c0.296-0.297 0.776-0.297 1.074 0 0.296 0.296 0.296 0.777 0 1.073-0.298 0.296-0.778 0.296-1.074 0s-0.297-0.777 0-1.073z"></path>
<path fill="#194f82" style="fill: var(--color1, #194f82)" d="M22.647 19.923l-2.77-2.771c0 0-0.971 0.971-1.283 1.283-0.314 0.313-0.721 0.219-0.721 0.219l-0.375 0.377 3.271 3.27 0.375-0.376c0 0-0.094-0.406 0.219-0.72s1.283-1.283 1.283-1.283z"></path>
<path fill="#194f82" style="fill: var(--color1, #194f82)" d="M31.114 8.686c-1.281-1.28-2.678-1.164-4.134 0.291-1.454 1.455-5.639 6.664-6.625 7.65l2.817 2.816c0.985-0.985 6.194-5.17 7.649-6.625s1.572-2.853 0.292-4.133zM29.843 10.946l-4.385 4.384c-0.107 0.108-0.28 0.108-0.388 0l-0.602-0.602c-0.106-0.105-0.106-0.279 0-0.387l4.384-4.385c0.107-0.107 0.282-0.107 0.39 0l0.601 0.602c0.107 0.107 0.107 0.281 0 0.388z"></path>
<path fill="#194f82" style="fill: var(--color1, #194f82)" d="M5.526 12.615h12.156v1.382h-12.156v-1.382z"></path>
<path fill="#194f82" style="fill: var(--color1, #194f82)" d="M5.526 17.451h9.117v1.381h-9.117v-1.381z"></path>
<path fill="#194f82" style="fill: var(--color1, #194f82)" d="M5.526 22.285h6.493v1.382h-6.493v-1.382z"></path>
<path fill="#194f82" style="fill: var(--color1, #194f82)" d="M22.411 22.311l-0.504 0.416-0.496 0.496v6.385h-19.754v-27.215h13.33v5.218c0 0.369 0.152 0.71 0.395 0.95 0.241 0.242 0.581 0.395 0.951 0.395h5.078v4.781c0.269-0.32 0.551-0.654 0.837-0.995 0.27-0.321 0.545-0.649 0.82-0.977v-4.536l-6.492-6.493h-15.886c-0.382 0-0.69 0.31-0.69 0.69v29.148c0 0.381 0.309 0.69 0.69 0.69h21.688c0.382 0 0.69-0.31 0.69-0.69v-9.51l-0.792 0.792 0.135 0.454zM16.37 2.873l4.699 4.7h-4.699v-4.7z"></path>
</symbol>
<symbol id="icon-home" viewBox="0 0 32 32">
<path fill="#194f82" d="M32 18.451l-16-12.42-16 12.42v-5.064l16-12.42 16 12.42zM28 18v12h-8v-8h-8v8h-8v-12l12-9z"></path>
</symbol>
<symbol id="icon-person-support" viewBox="0 0 32 32">
<path fill="#194f82" d="M26.666 21.661c0-1.656-1.343-2.998-2.999-2.998h-15.336c-1.656 0-2.998 1.342-2.998 2.998v0.77c0 1.19 0.425 2.342 1.198 3.247 2.088 2.446 5.27 3.653 9.464 3.653s7.377-1.207 9.469-3.651c0.775-0.906 1.202-2.059 1.202-3.251v-0.767zM8.332 20.663h15.336c0.551 0 0.999 0.447 0.999 0.998v0.767c0 0.715-0.256 1.407-0.721 1.951-1.675 1.957-4.299 2.952-7.95 2.952s-6.272-0.994-7.943-2.951c-0.464-0.543-0.719-1.234-0.719-1.948v-0.77c0-0.551 0.447-0.998 0.999-0.998z"></path>
<path fill="#194f82" d="M22.662 9.336c0-3.682-2.985-6.667-6.667-6.667-2.201 0-4.152 1.066-5.366 2.71-0.094-0.029-0.195-0.045-0.299-0.045h-3.33c-0.552 0-1 0.448-1 1v7.332c0 2.025 1.642 3.667 3.667 3.667h0.333v-0.006c0.005 0 0.009 0 0.014 0 0.735 0 1.33-0.595 1.33-1.33s-0.595-1.33-1.33-1.33c-0.426 0-0.805 0.2-1.048 0.511-0.57-0.265-0.965-0.842-0.965-1.512v-0.334h0.997c0.508 0 0.977-0.162 1.36-0.437 1.181 1.868 3.265 3.108 5.638 3.108 3.682 0 6.667-2.985 6.667-6.667zM9.33 9.194c-0.001 0.047-0.001 0.094-0.001 0.141s0.001 0.094 0.001 0.141v1.521c0 0.184-0.149 0.333-0.333 0.333h-0.997v-3.998h1.33v1.86zM11.33 9.454v-0.236c0.063-2.523 2.127-4.548 4.665-4.548 2.577 0 4.667 2.089 4.667 4.667s-2.089 4.667-4.667 4.667c-2.538 0-4.602-2.026-4.665-4.549z"></path>
</symbol>
</defs>
</svg>
